<svg width="24" height="24" viewBox="0 0 24 24" fill="none" xmlns="http://www.w3.org/2000/svg">
  <path d="M4 7H6V19H4V7Z" fill="#333333"/>
  <path d="M6 7H8V19H6V7Z" fill="#333333"/>
  <path d="M8 7H10V19H8V7Z" fill="#333333"/>
  <path d="M10 7H12V19H10V7Z" fill="#333333"/>
  <path d="M12 7H14V19H12V7Z" fill="#333333"/>
  <path d="M14 7H16V19H14V7Z" fill="#333333"/>
  <path d="M16 7H18V19H16V7Z" fill="#333333"/>
  <path d="M18 7H20V19H18V7Z" fill="#333333"/>
  <path d="M20 7H22V19H20V7Z" fill="#333333"/>
  <path d="M2 7H0V19H2V7Z" fill="#333333"/>
  <path d="M22 7H24V19H22V7Z" fill="#333333"/>
  <path d="M2 5H0V7H2V5Z" fill="#333333"/>
  <path d="M22 5H24V7H22V5Z" fill="#333333"/>
  <path d="M2 19H0V21H2V19Z" fill="#333333"/>
  <path d="M22 19H24V21H22V19Z" fill="#333333"/>
</svg>