<svg id="svg" version="1.1" xmlns="http://www.w3.org/2000/svg" xmlns:xlink="http://www.w3.org/1999/xlink" width="400" height="374.35897435897436" viewBox="0, 0, 400,374.35897435897436"><g id="svgg"><path id="path0" d="M171.973 79.053 C 170.971 79.250,169.901 79.811,169.177 80.520 C 167.745 81.920,165.357 82.668,160.674 83.184 C 155.778 83.724,152.941 84.491,151.753 85.596 C 150.144 87.093,147.333 87.910,141.392 88.608 L 135.836 89.261 134.223 90.851 C 132.645 92.406,131.803 92.790,126.966 94.162 C 125.260 94.646,124.810 94.956,124.345 95.968 C 123.937 96.856,123.191 97.478,121.623 98.238 C 120.130 98.961,119.183 99.729,118.553 100.728 C 118.051 101.522,116.924 102.654,116.047 103.243 C 114.833 104.058,114.295 104.759,113.789 106.183 C 113.157 107.965,111.568 109.732,110.595 109.736 C 110.345 109.737,109.958 110.454,109.734 111.330 C 108.892 114.623,107.799 116.676,105.964 118.409 C 104.787 119.521,104.117 120.470,104.112 121.031 C 104.099 122.402,102.853 124.746,101.161 126.582 C 100.291 127.525,99.294 129.160,98.876 130.327 C 97.773 133.409,97.301 134.166,95.885 135.120 C 94.900 135.784,94.488 136.420,94.125 137.838 C 93.438 140.524,91.910 143.333,90.727 144.086 C 89.373 144.948,89.285 145.095,88.412 147.960 C 87.860 149.771,87.240 150.852,86.049 152.080 C 84.515 153.663,83.884 154.824,82.702 158.240 C 82.352 159.253,81.719 160.040,80.749 160.672 L 79.313 161.605 79.513 163.811 C 79.751 166.437,79.918 166.613,83.470 168.014 C 85.634 168.866,86.553 169.482,87.728 170.863 C 88.992 172.348,89.538 172.689,91.215 173.037 C 93.248 173.459,95.166 174.623,97.229 176.687 C 97.934 177.392,99.216 178.089,100.486 178.458 C 102.426 179.022,104.869 180.991,104.869 181.991 C 104.869 182.165,105.591 182.490,106.474 182.712 C 109.412 183.452,112.149 184.907,113.549 186.474 C 115.098 188.207,115.474 188.319,116.330 187.303 C 118.220 185.058,119.470 183.895,119.990 183.895 C 120.671 183.895,121.511 182.417,121.907 180.524 C 122.086 179.669,122.793 178.628,123.941 177.528 C 125.269 176.256,125.960 175.154,126.760 173.034 C 128.925 167.292,131.814 166.347,133.834 170.719 L 134.644 172.472 134.839 234.644 C 135.063 306.075,134.681 299.821,138.876 300.705 C 141.776 301.317,268.856 301.297,271.507 300.685 C 275.571 299.747,275.280 304.732,275.288 236.070 C 275.296 175.748,275.364 172.554,276.694 170.283 C 278.828 166.641,281.017 167.304,283.195 172.250 C 284.050 174.189,285.201 176.035,286.250 177.147 C 287.437 178.404,288.115 179.554,288.547 181.041 C 289.054 182.784,289.414 183.311,290.618 184.071 C 291.419 184.577,292.519 185.572,293.061 186.283 C 294.549 188.234,294.957 188.225,296.986 186.196 C 298.512 184.670,299.322 184.214,302.114 183.313 C 303.938 182.725,305.492 182.093,305.568 181.909 C 306.053 180.726,308.130 178.984,309.491 178.618 C 311.773 178.004,313.084 177.251,315.050 175.427 C 316.304 174.263,317.427 173.627,318.994 173.191 C 321.457 172.506,322.019 172.154,322.935 170.721 C 323.334 170.098,324.843 169.108,326.928 168.101 L 330.281 166.482 330.636 164.046 C 330.864 162.480,330.862 161.562,330.628 161.474 C 330.009 161.240,327.715 159.117,327.715 158.777 C 327.715 157.508,325.855 153.915,324.322 152.222 C 323.195 150.978,322.351 149.618,322.083 148.614 C 321.347 145.856,320.685 144.662,319.506 143.966 C 318.235 143.215,316.694 140.312,316.023 137.406 C 315.791 136.402,315.468 135.581,315.305 135.581 C 314.287 135.581,312.342 133.096,311.589 130.835 C 311.010 129.095,310.236 127.782,308.956 126.369 C 307.663 124.941,306.963 123.748,306.516 122.207 C 305.742 119.546,305.398 118.979,304.081 118.201 C 302.947 117.531,301.433 114.670,300.725 111.856 C 300.402 110.575,300.005 109.940,299.295 109.574 C 297.905 108.855,297.090 107.855,296.507 106.155 C 296.164 105.155,295.421 104.240,294.192 103.305 C 293.197 102.548,292.220 101.621,292.022 101.245 C 291.427 100.120,289.784 98.502,289.237 98.502 C 288.099 98.502,286.480 97.277,285.764 95.872 C 285.346 95.053,284.763 94.382,284.469 94.382 C 282.475 94.382,277.621 92.325,276.266 90.905 C 274.712 89.277,274.504 89.215,267.940 88.389 C 263.704 87.857,261.322 87.073,259.898 85.743 C 258.532 84.467,256.217 83.895,249.553 83.189 C 245.233 82.731,242.319 81.769,240.778 80.293 C 240.104 79.648,239.084 79.180,237.935 78.991 C 235.512 78.593,174.020 78.650,171.973 79.053 M233.396 86.816 C 236.718 88.453,237.017 90.627,234.214 92.764 C 233.404 93.382,232.725 94.386,232.303 95.588 C 231.583 97.638,230.301 99.152,229.011 99.475 C 228.507 99.602,227.914 100.267,227.514 101.155 C 226.690 102.981,226.381 103.239,223.937 104.132 C 222.671 104.595,221.572 105.336,220.846 106.217 C 218.777 108.726,212.565 109.675,201.311 109.202 C 193.070 108.855,191.673 108.516,189.471 106.325 C 188.366 105.226,187.111 104.381,186.233 104.144 C 184.498 103.677,183.242 102.569,182.538 100.883 C 182.249 100.191,181.775 99.625,181.484 99.625 C 180.642 99.625,178.787 97.871,178.326 96.637 C 178.093 96.015,177.723 95.023,177.503 94.432 C 177.284 93.842,176.688 93.136,176.180 92.864 C 172.410 90.846,174.026 87.197,179.213 86.013 C 179.625 85.919,191.592 85.868,205.805 85.899 L 231.648 85.955 233.396 86.816 " stroke="none" fill="#1d1d1d" fill-rule="evenodd"></path><path id="path1" d="M0.000 187.266 L 0.000 374.532 200.000 374.532 L 400.000 374.532 400.000 187.266 L 400.000 0.000 200.000 0.000 L 0.000 0.000 0.000 187.266 M243.882 76.494 C 246.542 77.141,248.411 77.961,249.625 79.014 C 250.621 79.877,252.807 80.397,258.328 81.084 C 263.192 81.689,266.517 82.695,267.597 83.889 C 268.403 84.779,269.631 85.183,273.913 85.968 C 278.487 86.807,280.002 87.409,281.868 89.129 C 282.752 89.944,283.950 90.725,284.528 90.864 C 286.390 91.312,288.349 92.485,289.223 93.674 C 289.692 94.311,290.862 95.233,291.825 95.722 C 294.166 96.913,298.107 100.918,299.189 103.207 C 299.683 104.253,300.571 105.381,301.234 105.805 C 302.091 106.354,302.724 107.329,303.597 109.448 C 304.351 111.278,305.223 112.706,305.969 113.334 C 307.352 114.498,308.308 116.248,309.159 119.174 C 309.589 120.653,310.076 121.482,310.785 121.942 C 312.191 122.855,312.740 123.701,314.129 127.103 C 314.961 129.140,315.794 130.483,316.807 131.418 C 317.887 132.414,318.447 133.358,318.914 134.964 C 319.363 136.510,320.063 137.721,321.292 139.082 C 322.981 140.953,323.588 142.079,324.893 145.769 C 325.261 146.809,325.810 147.623,326.232 147.757 C 327.234 148.076,328.237 149.605,329.433 152.639 C 330.045 154.189,331.095 155.933,332.029 156.947 C 335.760 161.001,335.264 168.108,331.102 170.217 C 330.088 170.731,328.532 171.885,327.644 172.783 C 326.136 174.307,322.670 176.030,321.110 176.030 C 320.789 176.030,319.742 176.860,318.784 177.874 C 317.435 179.302,316.368 179.983,314.064 180.889 C 311.975 181.710,310.689 182.490,309.755 183.502 C 308.778 184.561,307.829 185.117,306.191 185.593 C 304.603 186.055,303.523 186.675,302.448 187.742 C 296.805 193.341,287.913 191.135,285.729 183.594 C 285.408 182.485,284.805 181.620,283.799 180.823 C 282.763 180.002,281.927 178.778,280.936 176.630 C 278.344 171.012,278.488 167.703,278.277 237.640 C 278.066 307.725,278.359 301.354,275.268 303.170 C 273.975 303.929,273.693 303.933,205.431 303.933 C 130.636 303.933,134.893 304.061,133.246 301.752 L 132.397 300.562 132.210 238.390 C 132.040 181.875,131.967 176.098,131.410 174.906 L 130.798 173.596 129.253 176.887 C 128.084 179.378,127.407 180.357,126.470 180.910 C 125.536 181.461,125.077 182.122,124.598 183.610 C 122.240 190.923,113.484 193.392,108.355 188.189 C 107.291 187.109,105.990 186.283,104.499 185.739 C 102.352 184.956,100.893 183.948,100.153 182.734 C 99.966 182.427,98.238 181.521,96.313 180.722 C 93.614 179.601,92.548 178.939,91.658 177.831 C 90.848 176.824,89.977 176.238,88.745 175.872 C 86.298 175.145,84.985 174.413,82.912 172.619 C 81.928 171.767,80.429 170.773,79.582 170.409 C 75.206 168.534,74.393 160.442,78.254 157.193 C 79.097 156.484,79.850 155.171,80.776 152.798 C 81.851 150.044,82.397 149.162,83.714 148.062 C 84.915 147.058,85.440 146.278,85.754 145.032 C 86.367 142.596,87.764 140.065,89.266 138.668 C 90.155 137.841,90.837 136.668,91.384 135.024 C 91.972 133.258,92.572 132.267,93.596 131.375 C 94.605 130.496,95.304 129.357,96.070 127.341 C 97.276 124.170,98.524 122.260,99.617 121.913 C 100.135 121.748,100.591 120.925,101.129 119.181 C 102.054 116.188,103.395 113.799,104.591 113.015 C 105.403 112.483,105.955 111.464,107.127 108.332 C 107.378 107.661,108.177 106.591,108.903 105.954 C 109.629 105.317,110.631 103.976,111.130 102.974 C 112.285 100.657,115.558 97.320,118.082 95.889 C 119.157 95.278,120.494 94.201,121.053 93.495 C 121.772 92.586,122.848 91.914,124.744 91.189 C 126.266 90.607,127.825 89.712,128.358 89.114 C 129.802 87.494,131.529 86.866,137.099 85.939 C 141.726 85.168,142.396 84.957,143.926 83.790 C 145.756 82.393,148.500 81.584,153.734 80.900 C 157.855 80.360,159.390 79.896,161.066 78.682 C 162.659 77.528,165.846 76.520,169.401 76.045 C 174.140 75.411,241.092 75.815,243.882 76.494 M180.993 88.948 C 179.557 89.572,179.571 89.383,180.700 92.697 C 181.485 94.999,181.786 95.433,183.178 96.259 C 184.145 96.833,185.060 97.783,185.524 98.694 C 186.428 100.467,186.689 100.645,190.015 101.773 C 192.810 102.720,194.800 103.709,196.255 104.872 C 198.852 106.950,211.349 106.739,214.375 104.567 C 216.135 103.303,219.943 101.622,222.009 101.196 C 223.187 100.954,223.566 100.615,224.410 99.050 C 225.079 97.809,225.948 96.873,227.022 96.236 C 228.372 95.435,228.760 94.922,229.429 93.052 C 229.868 91.827,230.341 90.563,230.480 90.243 C 230.663 89.825,230.362 89.485,229.399 89.026 C 227.550 88.144,183.007 88.072,180.993 88.948 " stroke="none" fill="#f3f3f3" fill-rule="evenodd"></path><path id="path2" d="M173.783 77.516 C 170.106 77.874,169.326 78.090,165.543 79.795 C 163.310 80.802,160.642 81.577,156.606 82.392 C 152.452 83.230,150.153 83.905,148.334 84.822 C 145.582 86.207,142.992 86.941,138.390 87.638 C 134.976 88.155,133.359 88.744,131.534 90.136 C 130.832 90.672,128.890 91.679,127.219 92.373 C 125.233 93.198,123.593 94.198,122.484 95.262 C 121.550 96.157,120.172 97.255,119.422 97.702 C 117.655 98.753,113.334 103.337,112.403 105.148 C 112.005 105.921,111.141 107.060,110.483 107.678 C 109.825 108.296,108.658 110.153,107.891 111.806 C 107.123 113.458,105.970 115.407,105.329 116.137 C 104.689 116.867,103.593 118.717,102.895 120.249 C 102.197 121.781,101.037 123.657,100.318 124.419 C 99.599 125.182,98.517 127.032,97.914 128.531 C 97.275 130.117,96.112 132.064,95.131 133.189 C 94.204 134.252,93.153 135.957,92.796 136.978 C 92.438 137.998,91.244 140.056,90.141 141.551 C 89.038 143.046,87.831 145.118,87.458 146.155 C 87.085 147.192,86.067 148.843,85.196 149.824 C 84.296 150.837,83.146 152.766,82.536 154.284 C 81.931 155.789,80.682 157.888,79.682 159.082 C 76.321 163.090,77.091 166.807,81.769 169.162 C 83.247 169.906,85.196 171.165,86.100 171.960 C 87.003 172.755,88.734 173.767,89.946 174.209 C 91.158 174.651,92.889 175.663,93.793 176.458 C 94.696 177.254,96.842 178.558,98.561 179.356 C 100.326 180.176,102.240 181.390,102.959 182.147 C 103.660 182.884,105.022 183.770,105.986 184.116 C 106.950 184.463,108.399 185.222,109.206 185.803 C 115.647 190.439,118.845 189.671,122.744 182.550 C 123.636 180.921,124.796 179.234,125.321 178.801 C 125.847 178.368,127.148 176.262,128.213 174.120 C 130.245 170.034,130.753 169.624,131.878 171.161 C 133.750 173.718,133.708 172.217,133.708 235.868 C 133.708 305.861,133.405 300.918,137.753 301.830 C 140.563 302.421,269.549 302.421,272.360 301.830 C 276.737 300.911,276.404 306.242,276.404 237.041 C 276.404 171.848,276.343 173.751,278.539 171.141 C 279.788 169.657,280.195 170.008,282.257 174.352 C 283.139 176.210,284.390 178.232,285.037 178.846 C 285.684 179.460,286.720 180.974,287.339 182.210 C 289.099 185.724,292.847 189.139,294.944 189.139 C 295.786 189.139,298.261 187.820,300.212 186.330 C 301.130 185.629,302.852 184.702,304.039 184.269 C 305.277 183.818,306.928 182.811,307.913 181.907 C 308.961 180.944,310.797 179.849,312.635 179.090 C 314.339 178.387,316.108 177.353,316.716 176.705 C 317.307 176.076,319.139 174.933,320.787 174.166 C 322.434 173.398,324.532 172.141,325.448 171.372 C 326.364 170.603,328.085 169.484,329.273 168.884 C 331.904 167.556,332.210 167.030,332.210 163.833 C 332.210 161.379,331.238 158.801,330.313 158.801 C 330.127 158.801,329.190 157.158,328.231 155.150 C 327.271 153.141,325.908 150.853,325.202 150.064 C 324.496 149.275,323.591 147.842,323.192 146.880 C 322.138 144.336,321.376 143.028,320.213 141.760 C 319.108 140.556,317.969 138.449,317.276 136.330 C 317.040 135.609,316.133 134.242,315.259 133.292 C 314.319 132.270,313.159 130.358,312.419 128.610 C 311.730 126.985,310.603 125.066,309.913 124.345 C 309.223 123.624,308.145 121.884,307.516 120.478 C 306.888 119.073,305.623 116.966,304.706 115.797 C 303.789 114.627,302.655 112.665,302.185 111.436 C 301.697 110.156,300.755 108.636,299.980 107.878 C 299.236 107.150,298.181 105.785,297.634 104.846 C 296.504 102.903,291.390 97.783,289.700 96.902 C 289.082 96.580,287.914 95.632,287.104 94.795 C 286.072 93.729,284.931 93.041,283.291 92.495 C 282.004 92.067,280.286 91.235,279.473 90.646 C 277.037 88.881,275.269 88.161,271.723 87.489 C 267.311 86.653,266.258 86.322,263.014 84.748 C 260.913 83.729,259.119 83.234,255.102 82.566 C 248.645 81.492,247.068 81.080,244.949 79.908 C 240.272 77.324,241.307 77.395,207.303 77.315 C 190.412 77.274,175.328 77.365,173.783 77.516 M237.935 78.991 C 239.084 79.180,240.104 79.648,240.778 80.293 C 242.319 81.769,245.233 82.731,249.553 83.189 C 256.217 83.895,258.532 84.467,259.898 85.743 C 261.322 87.073,263.704 87.857,267.940 88.389 C 274.504 89.215,274.712 89.277,276.266 90.905 C 277.621 92.325,282.475 94.382,284.469 94.382 C 284.763 94.382,285.346 95.053,285.764 95.872 C 286.480 97.277,288.099 98.502,289.237 98.502 C 289.784 98.502,291.427 100.120,292.022 101.245 C 292.220 101.621,293.197 102.548,294.192 103.305 C 295.421 104.240,296.164 105.155,296.507 106.155 C 297.090 107.855,297.905 108.855,299.295 109.574 C 300.005 109.940,300.402 110.575,300.725 111.856 C 301.433 114.670,302.947 117.531,304.081 118.201 C 305.398 118.979,305.742 119.546,306.516 122.207 C 306.963 123.748,307.663 124.941,308.956 126.369 C 310.236 127.782,311.010 129.095,311.589 130.835 C 312.342 133.096,314.287 135.581,315.305 135.581 C 315.468 135.581,315.791 136.402,316.023 137.406 C 316.694 140.312,318.235 143.215,319.506 143.966 C 320.685 144.662,321.347 145.856,322.083 148.614 C 322.351 149.618,323.195 150.978,324.322 152.222 C 325.855 153.915,327.715 157.508,327.715 158.777 C 327.715 159.117,330.009 161.240,330.628 161.474 C 330.862 161.562,330.864 162.480,330.636 164.046 L 330.281 166.482 326.928 168.101 C 324.843 169.108,323.334 170.098,322.935 170.721 C 322.019 172.154,321.457 172.506,318.994 173.191 C 317.427 173.627,316.304 174.263,315.050 175.427 C 313.084 177.251,311.773 178.004,309.491 178.618 C 308.130 178.984,306.053 180.726,305.568 181.909 C 305.492 182.093,303.938 182.725,302.114 183.313 C 299.322 184.214,298.512 184.670,296.986 186.196 C 294.957 188.225,294.549 188.234,293.061 186.283 C 292.519 185.572,291.419 184.577,290.618 184.071 C 289.414 183.311,289.054 182.784,288.547 181.041 C 288.115 179.554,287.437 178.404,286.250 177.147 C 285.201 176.035,284.050 174.189,283.195 172.250 C 281.017 167.304,278.828 166.641,276.694 170.283 C 275.364 172.554,275.296 175.748,275.288 236.070 C 275.280 304.732,275.571 299.747,271.507 300.685 C 268.856 301.297,141.776 301.317,138.876 300.705 C 134.681 299.821,135.063 306.075,134.839 234.644 L 134.644 172.472 133.834 170.719 C 131.814 166.347,128.925 167.292,126.760 173.034 C 125.960 175.154,125.269 176.256,123.941 177.528 C 122.793 178.628,122.086 179.669,121.907 180.524 C 121.511 182.417,120.671 183.895,119.990 183.895 C 119.470 183.895,118.220 185.058,116.330 187.303 C 115.474 188.319,115.098 188.207,113.549 186.474 C 112.149 184.907,109.412 183.452,106.474 182.712 C 105.591 182.490,104.869 182.165,104.869 181.991 C 104.869 180.991,102.426 179.022,100.486 178.458 C 99.216 178.089,97.934 177.392,97.229 176.687 C 95.166 174.623,93.248 173.459,91.215 173.037 C 89.538 172.689,88.992 172.348,87.728 170.863 C 86.553 169.482,85.634 168.866,83.470 168.014 C 79.918 166.613,79.751 166.437,79.513 163.811 L 79.313 161.605 80.749 160.672 C 81.719 160.040,82.352 159.253,82.702 158.240 C 83.884 154.824,84.515 153.663,86.049 152.080 C 87.240 150.852,87.860 149.771,88.412 147.960 C 89.285 145.095,89.373 144.948,90.727 144.086 C 91.910 143.333,93.438 140.524,94.125 137.838 C 94.488 136.420,94.900 135.784,95.885 135.120 C 97.301 134.166,97.773 133.409,98.876 130.327 C 99.294 129.160,100.291 127.525,101.161 126.582 C 102.853 124.746,104.099 122.402,104.112 121.031 C 104.117 120.470,104.787 119.521,105.964 118.409 C 107.799 116.676,108.892 114.623,109.734 111.330 C 109.958 110.454,110.345 109.737,110.595 109.736 C 111.568 109.732,113.157 107.965,113.789 106.183 C 114.295 104.759,114.833 104.058,116.047 103.243 C 116.924 102.654,118.051 101.522,118.553 100.728 C 119.183 99.729,120.130 98.961,121.623 98.238 C 123.191 97.478,123.937 96.856,124.345 95.968 C 124.810 94.956,125.260 94.646,126.966 94.162 C 131.803 92.790,132.645 92.406,134.223 90.851 L 135.836 89.261 141.392 88.608 C 147.333 87.910,150.144 87.093,151.753 85.596 C 152.941 84.491,155.778 83.724,160.674 83.184 C 165.357 82.668,167.745 81.920,169.177 80.520 C 169.901 79.811,170.971 79.250,171.973 79.053 C 174.020 78.650,235.512 78.593,237.935 78.991 M179.213 86.013 C 174.026 87.197,172.410 90.846,176.180 92.864 C 176.688 93.136,177.284 93.842,177.503 94.432 C 177.723 95.023,178.093 96.015,178.326 96.637 C 178.787 97.871,180.642 99.625,181.484 99.625 C 181.775 99.625,182.249 100.191,182.538 100.883 C 183.242 102.569,184.498 103.677,186.233 104.144 C 187.111 104.381,188.366 105.226,189.471 106.325 C 191.673 108.516,193.070 108.855,201.311 109.202 C 212.565 109.675,218.777 108.726,220.846 106.217 C 221.572 105.336,222.671 104.595,223.937 104.132 C 226.381 103.239,226.690 102.981,227.514 101.155 C 227.914 100.267,228.507 99.602,229.011 99.475 C 230.301 99.152,231.583 97.638,232.303 95.588 C 232.725 94.386,233.404 93.382,234.214 92.764 C 237.017 90.627,236.718 88.453,233.396 86.816 L 231.648 85.955 205.805 85.899 C 191.592 85.868,179.625 85.919,179.213 86.013 M230.899 87.772 C 233.406 88.940,234.014 89.677,233.209 90.567 C 232.878 90.933,232.099 92.351,231.479 93.719 C 230.699 95.440,229.830 96.641,228.653 97.625 C 227.719 98.406,226.530 99.686,226.011 100.470 C 225.331 101.497,224.319 102.259,222.382 103.202 C 220.904 103.921,219.337 104.846,218.899 105.257 C 215.187 108.745,196.302 108.833,191.725 105.385 C 191.023 104.856,189.235 103.840,187.752 103.127 C 185.829 102.203,184.825 101.460,184.257 100.541 C 183.818 99.832,182.687 98.619,181.744 97.847 C 180.610 96.919,179.720 95.743,179.120 94.382 C 178.621 93.249,177.791 91.767,177.276 91.088 C 176.213 89.685,176.416 89.165,178.435 88.121 C 180.608 86.997,181.534 86.956,205.243 86.927 L 229.026 86.899 230.899 87.772 " stroke="none" fill="#6c6c6c" fill-rule="evenodd"></path><path id="path3" d="M207.303 77.150 C 241.231 77.415,240.315 77.348,244.949 79.908 C 247.068 81.080,248.645 81.492,255.102 82.566 C 259.119 83.234,260.913 83.729,263.014 84.748 C 266.258 86.322,267.311 86.653,271.723 87.489 C 275.269 88.161,277.037 88.881,279.473 90.646 C 280.286 91.235,282.004 92.067,283.291 92.495 C 284.931 93.041,286.072 93.729,287.104 94.795 C 287.914 95.632,289.082 96.580,289.700 96.902 C 291.390 97.783,296.504 102.903,297.634 104.846 C 298.181 105.785,299.236 107.150,299.980 107.878 C 300.755 108.636,301.697 110.156,302.185 111.436 C 302.655 112.665,303.789 114.627,304.706 115.797 C 305.623 116.966,306.888 119.073,307.516 120.478 C 308.145 121.884,309.223 123.624,309.913 124.345 C 310.603 125.066,311.730 126.985,312.419 128.610 C 313.159 130.358,314.319 132.270,315.259 133.292 C 316.133 134.242,317.040 135.609,317.276 136.330 C 317.969 138.449,319.108 140.556,320.213 141.760 C 321.376 143.028,322.138 144.336,323.192 146.880 C 323.591 147.842,324.496 149.275,325.202 150.064 C 325.908 150.853,327.271 153.141,328.231 155.150 C 329.190 157.158,330.127 158.801,330.313 158.801 C 331.238 158.801,332.210 161.379,332.210 163.833 C 332.210 167.030,331.904 167.556,329.273 168.884 C 328.085 169.484,326.364 170.603,325.448 171.372 C 324.532 172.141,322.434 173.398,320.787 174.166 C 319.139 174.933,317.307 176.076,316.716 176.705 C 316.108 177.353,314.339 178.387,312.635 179.090 C 310.797 179.849,308.961 180.944,307.913 181.907 C 306.928 182.811,305.277 183.818,304.039 184.269 C 302.852 184.702,301.130 185.629,300.212 186.330 C 298.261 187.820,295.786 189.139,294.944 189.139 C 292.847 189.139,289.099 185.724,287.339 182.210 C 286.720 180.974,285.684 179.460,285.037 178.846 C 284.390 178.232,283.139 176.210,282.257 174.352 C 280.195 170.008,279.788 169.657,278.539 171.141 C 276.343 173.751,276.404 171.848,276.404 237.041 C 276.404 306.242,276.737 300.911,272.360 301.830 C 269.549 302.421,140.563 302.421,137.753 301.830 C 133.405 300.918,133.708 305.861,133.708 235.868 C 133.708 172.217,133.750 173.718,131.878 171.161 C 130.753 169.624,130.245 170.034,128.213 174.120 C 127.148 176.262,125.847 178.368,125.321 178.801 C 124.796 179.234,123.636 180.921,122.744 182.550 C 118.845 189.671,115.647 190.439,109.206 185.803 C 108.399 185.222,106.950 184.463,105.986 184.116 C 105.022 183.770,103.660 182.884,102.959 182.147 C 102.240 181.390,100.326 180.176,98.561 179.356 C 96.842 178.558,94.696 177.254,93.793 176.458 C 92.889 175.663,91.158 174.651,89.946 174.209 C 88.734 173.767,87.003 172.755,86.100 171.960 C 85.196 171.165,83.247 169.906,81.769 169.162 C 77.091 166.807,76.321 163.090,79.682 159.082 C 80.682 157.888,81.931 155.789,82.536 154.284 C 83.146 152.766,84.296 150.837,85.196 149.824 C 86.067 148.843,87.085 147.192,87.458 146.155 C 87.831 145.118,89.038 143.046,90.141 141.551 C 91.244 140.056,92.438 137.998,92.796 136.978 C 93.153 135.957,94.204 134.252,95.131 133.189 C 96.112 132.064,97.275 130.117,97.914 128.531 C 98.517 127.032,99.599 125.182,100.318 124.419 C 101.037 123.657,102.197 121.781,102.895 120.249 C 103.593 118.717,104.689 116.867,105.329 116.137 C 105.970 115.407,107.123 113.458,107.891 111.806 C 108.658 110.153,109.825 108.296,110.483 107.678 C 111.141 107.060,112.005 105.921,112.403 105.148 C 113.334 103.337,117.655 98.753,119.422 97.702 C 120.172 97.255,121.550 96.157,122.484 95.262 C 123.593 94.198,125.233 93.198,127.219 92.373 C 128.890 91.679,130.832 90.672,131.534 90.136 C 133.359 88.744,134.976 88.155,138.390 87.638 C 142.992 86.941,145.582 86.207,148.334 84.822 C 150.153 83.905,152.452 83.230,156.606 82.392 C 160.642 81.577,163.310 80.802,165.543 79.795 C 169.339 78.084,170.122 77.869,173.783 77.528 L 176.592 77.267 174.345 77.216 C 171.421 77.149,167.983 77.979,164.310 79.638 C 162.356 80.520,159.497 81.347,155.865 82.081 C 151.941 82.874,149.449 83.615,147.128 84.679 C 144.039 86.096,139.886 87.245,137.802 87.259 C 135.982 87.272,133.141 88.368,130.598 90.039 C 129.197 90.960,127.197 91.997,126.154 92.343 C 125.024 92.718,123.707 93.537,122.896 94.368 C 122.148 95.135,120.777 96.229,119.850 96.800 C 117.565 98.205,114.081 101.652,112.639 103.933 C 111.988 104.963,110.774 106.585,109.941 107.539 C 109.108 108.493,108.104 110.094,107.710 111.097 C 107.316 112.100,106.106 114.148,105.021 115.647 C 103.937 117.146,102.773 119.206,102.435 120.224 C 102.093 121.254,101.100 122.876,100.198 123.879 C 99.259 124.923,98.068 126.892,97.371 128.553 C 96.708 130.132,95.581 132.064,94.865 132.847 C 94.150 133.629,93.063 135.365,92.449 136.703 C 91.836 138.041,90.678 139.987,89.875 141.027 C 89.073 142.067,87.840 144.174,87.134 145.710 C 86.429 147.245,85.338 148.986,84.711 149.579 C 84.070 150.183,82.967 152.071,82.196 153.886 C 81.440 155.662,80.269 157.706,79.594 158.427 C 75.655 162.631,76.543 167.125,81.835 169.769 C 83.277 170.489,84.794 171.460,85.206 171.926 C 85.618 172.393,87.341 173.419,89.036 174.207 C 90.730 174.996,92.772 176.233,93.574 176.957 C 94.376 177.682,96.360 178.877,97.984 179.613 C 99.608 180.349,101.526 181.522,102.247 182.219 C 102.968 182.917,104.906 184.176,106.554 185.018 C 108.202 185.860,110.362 187.126,111.353 187.831 C 115.667 190.901,120.068 189.017,123.234 182.745 C 123.857 181.512,124.959 179.876,125.684 179.109 C 126.409 178.343,127.742 176.156,128.646 174.251 C 130.382 170.593,130.741 170.274,131.607 171.629 C 133.385 174.411,133.333 172.487,133.333 236.086 C 133.333 306.434,132.984 301.349,137.881 302.254 C 141.866 302.991,272.990 302.561,274.365 301.807 C 276.740 300.505,276.574 304.945,276.779 237.453 C 276.983 170.417,276.888 173.284,278.969 171.400 C 279.850 170.602,279.976 170.747,282.003 174.906 C 282.856 176.657,284.119 178.680,284.810 179.401 C 285.501 180.122,286.579 181.740,287.206 182.998 C 290.340 189.286,295.268 190.917,299.882 187.193 C 300.668 186.559,302.556 185.467,304.079 184.766 C 305.601 184.065,307.570 182.855,308.454 182.077 C 309.337 181.300,311.265 180.191,312.737 179.613 C 314.414 178.955,316.195 177.880,317.503 176.735 C 318.652 175.729,319.777 174.905,320.002 174.903 C 320.899 174.895,324.257 173.058,325.953 171.647 C 326.940 170.826,328.465 169.796,329.341 169.359 C 333.750 167.156,334.168 162.352,330.334 157.942 C 329.854 157.391,328.887 155.637,328.186 154.045 C 327.484 152.454,326.318 150.497,325.595 149.696 C 324.872 148.896,323.778 147.121,323.163 145.751 C 322.548 144.381,321.395 142.417,320.599 141.386 C 319.804 140.355,318.635 138.357,318.002 136.946 C 317.369 135.536,316.204 133.646,315.412 132.746 C 314.620 131.846,313.424 129.805,312.754 128.209 C 312.068 126.574,310.858 124.553,309.982 123.577 C 309.127 122.625,308.115 120.976,307.734 119.913 C 307.353 118.850,306.229 116.926,305.236 115.638 C 304.243 114.350,303.069 112.369,302.627 111.236 C 302.184 110.103,301.181 108.502,300.397 107.678 C 299.613 106.854,298.387 105.253,297.672 104.120 C 296.379 102.069,291.350 97.004,290.607 97.004 C 290.393 97.004,289.312 96.147,288.205 95.100 C 286.839 93.808,285.316 92.840,283.465 92.087 C 281.965 91.477,280.226 90.589,279.601 90.113 C 277.557 88.560,276.001 87.961,271.583 87.027 C 268.954 86.472,265.967 85.531,264.045 84.655 C 260.572 83.071,258.945 82.588,255.805 82.207 C 252.029 81.749,248.530 80.837,245.684 79.568 C 239.649 76.877,241.763 77.022,207.491 76.963 L 176.592 76.910 207.303 77.150 M180.522 87.241 C 177.045 88.299,176.053 89.475,177.276 91.088 C 177.791 91.767,178.621 93.249,179.120 94.382 C 179.720 95.743,180.610 96.919,181.744 97.847 C 182.687 98.619,183.818 99.832,184.257 100.541 C 184.825 101.460,185.829 102.203,187.752 103.127 C 189.235 103.840,191.023 104.856,191.725 105.385 C 196.302 108.833,215.187 108.745,218.899 105.257 C 219.337 104.846,220.904 103.921,222.382 103.202 C 224.319 102.259,225.331 101.497,226.011 100.470 C 226.530 99.686,227.719 98.406,228.653 97.625 C 229.830 96.641,230.699 95.440,231.479 93.719 C 232.099 92.351,232.878 90.933,233.209 90.567 C 234.014 89.677,233.406 88.940,230.899 87.772 L 229.026 86.899 205.243 86.927 C 192.163 86.943,181.038 87.084,180.522 87.241 M229.597 87.688 C 230.371 87.919,231.443 88.467,231.979 88.905 L 232.953 89.700 231.177 93.165 C 230.068 95.329,228.960 96.950,228.226 97.481 C 227.580 97.949,226.480 99.081,225.780 99.998 C 224.567 101.589,222.362 102.968,216.173 106.005 C 210.453 108.813,196.277 107.899,191.115 104.390 C 190.039 103.659,188.631 102.944,187.987 102.803 C 187.325 102.657,186.221 101.898,185.449 101.057 C 184.697 100.238,183.204 98.696,182.130 97.631 C 181.054 96.562,179.833 94.875,179.410 93.871 C 178.987 92.869,178.296 91.564,177.874 90.971 C 176.923 89.635,177.127 89.291,179.540 88.167 L 181.461 87.273 204.825 87.270 C 221.068 87.267,228.619 87.394,229.597 87.688 " stroke="none" fill="#848484" fill-rule="evenodd"></path><path id="path4" d="M169.401 76.045 C 165.846 76.520,162.659 77.528,161.066 78.682 C 159.390 79.896,157.855 80.360,153.734 80.900 C 148.500 81.584,145.756 82.393,143.926 83.790 C 142.396 84.957,141.726 85.168,137.099 85.939 C 131.529 86.866,129.802 87.494,128.358 89.114 C 127.825 89.712,126.266 90.607,124.744 91.189 C 122.848 91.914,121.772 92.586,121.053 93.495 C 120.494 94.201,119.157 95.278,118.082 95.889 C 115.558 97.320,112.285 100.657,111.130 102.974 C 110.631 103.976,109.629 105.317,108.903 105.954 C 108.177 106.591,107.378 107.661,107.127 108.332 C 105.955 111.464,105.403 112.483,104.591 113.015 C 103.395 113.799,102.054 116.188,101.129 119.181 C 100.591 120.925,100.135 121.748,99.617 121.913 C 98.524 122.260,97.276 124.170,96.070 127.341 C 95.304 129.357,94.605 130.496,93.596 131.375 C 92.572 132.267,91.972 133.258,91.384 135.024 C 90.837 136.668,90.155 137.841,89.266 138.668 C 87.764 140.065,86.367 142.596,85.754 145.032 C 85.440 146.278,84.915 147.058,83.714 148.062 C 82.397 149.162,81.851 150.044,80.776 152.798 C 79.850 155.171,79.097 156.484,78.254 157.193 C 74.393 160.442,75.206 168.534,79.582 170.409 C 80.429 170.773,81.928 171.767,82.912 172.619 C 84.985 174.413,86.298 175.145,88.745 175.872 C 89.977 176.238,90.848 176.824,91.658 177.831 C 92.548 178.939,93.614 179.601,96.313 180.722 C 98.238 181.521,99.966 182.427,100.153 182.734 C 100.893 183.948,102.352 184.956,104.499 185.739 C 105.990 186.283,107.291 187.109,108.355 188.189 C 113.484 193.392,122.240 190.923,124.598 183.610 C 125.077 182.122,125.536 181.461,126.470 180.910 C 127.407 180.357,128.084 179.378,129.253 176.887 L 130.798 173.596 131.410 174.906 C 131.967 176.098,132.040 181.875,132.210 238.390 L 132.397 300.562 133.246 301.752 C 134.893 304.061,130.636 303.933,205.431 303.933 C 273.693 303.933,273.975 303.929,275.268 303.170 C 278.359 301.354,278.066 307.725,278.277 237.640 C 278.488 167.703,278.344 171.012,280.936 176.630 C 281.927 178.778,282.763 180.002,283.799 180.823 C 284.805 181.620,285.408 182.485,285.729 183.594 C 287.913 191.135,296.805 193.341,302.448 187.742 C 303.523 186.675,304.603 186.055,306.191 185.593 C 307.829 185.117,308.778 184.561,309.755 183.502 C 310.689 182.490,311.975 181.710,314.064 180.889 C 316.368 179.983,317.435 179.302,318.784 177.874 C 319.742 176.860,320.789 176.030,321.110 176.030 C 322.670 176.030,326.136 174.307,327.644 172.783 C 328.532 171.885,330.088 170.731,331.102 170.217 C 335.264 168.108,335.760 161.001,332.029 156.947 C 331.095 155.933,330.045 154.189,329.433 152.639 C 328.237 149.605,327.234 148.076,326.232 147.757 C 325.810 147.623,325.261 146.809,324.893 145.769 C 323.588 142.079,322.981 140.953,321.292 139.082 C 320.063 137.721,319.363 136.510,318.914 134.964 C 318.447 133.358,317.887 132.414,316.807 131.418 C 315.794 130.483,314.961 129.140,314.129 127.103 C 312.740 123.701,312.191 122.855,310.785 121.942 C 310.076 121.482,309.589 120.653,309.159 119.174 C 308.308 116.248,307.352 114.498,305.969 113.334 C 305.223 112.706,304.351 111.278,303.597 109.448 C 302.724 107.329,302.091 106.354,301.234 105.805 C 300.571 105.381,299.683 104.253,299.189 103.207 C 298.107 100.918,294.166 96.913,291.825 95.722 C 290.862 95.233,289.692 94.311,289.223 93.674 C 288.349 92.485,286.390 91.312,284.528 90.864 C 283.950 90.725,282.752 89.944,281.868 89.129 C 280.002 87.409,278.487 86.807,273.913 85.968 C 269.631 85.183,268.403 84.779,267.597 83.889 C 266.517 82.695,263.192 81.689,258.328 81.084 C 252.807 80.397,250.621 79.877,249.625 79.014 C 248.411 77.961,246.542 77.141,243.882 76.494 C 241.092 75.815,174.140 75.411,169.401 76.045 M240.628 77.664 C 241.859 78.020,244.135 78.877,245.684 79.568 C 248.530 80.837,252.029 81.749,255.805 82.207 C 258.945 82.588,260.572 83.071,264.045 84.655 C 265.967 85.531,268.954 86.472,271.583 87.027 C 276.001 87.961,277.557 88.560,279.601 90.113 C 280.226 90.589,281.965 91.477,283.465 92.087 C 285.316 92.840,286.839 93.808,288.205 95.100 C 289.312 96.147,290.393 97.004,290.607 97.004 C 291.350 97.004,296.379 102.069,297.672 104.120 C 298.387 105.253,299.613 106.854,300.397 107.678 C 301.181 108.502,302.184 110.103,302.627 111.236 C 303.069 112.369,304.243 114.350,305.236 115.638 C 306.229 116.926,307.353 118.850,307.734 119.913 C 308.115 120.976,309.127 122.625,309.982 123.577 C 310.858 124.553,312.068 126.574,312.754 128.209 C 313.424 129.805,314.620 131.846,315.412 132.746 C 316.204 133.646,317.369 135.536,318.002 136.946 C 318.635 138.357,319.804 140.355,320.599 141.386 C 321.395 142.417,322.548 144.381,323.163 145.751 C 323.778 147.121,324.872 148.896,325.595 149.696 C 326.318 150.497,327.484 152.454,328.186 154.045 C 328.887 155.637,329.854 157.391,330.334 157.942 C 334.168 162.352,333.750 167.156,329.341 169.359 C 328.465 169.796,326.940 170.826,325.953 171.647 C 324.257 173.058,320.899 174.895,320.002 174.903 C 319.777 174.905,318.652 175.729,317.503 176.735 C 316.195 177.880,314.414 178.955,312.737 179.613 C 311.265 180.191,309.337 181.300,308.454 182.077 C 307.570 182.855,305.601 184.065,304.079 184.766 C 302.556 185.467,300.668 186.559,299.882 187.193 C 295.268 190.917,290.340 189.286,287.206 182.998 C 286.579 181.740,285.501 180.122,284.810 179.401 C 284.119 178.680,282.856 176.657,282.003 174.906 C 279.976 170.747,279.850 170.602,278.969 171.400 C 276.888 173.284,276.983 170.417,276.779 237.453 C 276.574 304.945,276.740 300.505,274.365 301.807 C 272.990 302.561,141.866 302.991,137.881 302.254 C 132.984 301.349,133.333 306.434,133.333 236.086 C 133.333 172.487,133.385 174.411,131.607 171.629 C 130.741 170.274,130.382 170.593,128.646 174.251 C 127.742 176.156,126.409 178.343,125.684 179.109 C 124.959 179.876,123.857 181.512,123.234 182.745 C 120.068 189.017,115.667 190.901,111.353 187.831 C 110.362 187.126,108.202 185.860,106.554 185.018 C 104.906 184.176,102.968 182.917,102.247 182.219 C 101.526 181.522,99.608 180.349,97.984 179.613 C 96.360 178.877,94.376 177.682,93.574 176.957 C 92.772 176.233,90.730 174.996,89.036 174.207 C 87.341 173.419,85.618 172.393,85.206 171.926 C 84.794 171.460,83.277 170.489,81.835 169.769 C 76.543 167.125,75.655 162.631,79.594 158.427 C 80.269 157.706,81.440 155.662,82.196 153.886 C 82.967 152.071,84.070 150.183,84.711 149.579 C 85.338 148.986,86.429 147.245,87.134 145.710 C 87.840 144.174,89.073 142.067,89.875 141.027 C 90.678 139.987,91.836 138.041,92.449 136.703 C 93.063 135.365,94.150 133.629,94.865 132.847 C 95.581 132.064,96.708 130.132,97.371 128.553 C 98.068 126.892,99.259 124.923,100.198 123.879 C 101.100 122.876,102.093 121.254,102.435 120.224 C 102.773 119.206,103.937 117.146,105.021 115.647 C 106.106 114.148,107.316 112.100,107.710 111.097 C 108.104 110.094,109.108 108.493,109.941 107.539 C 110.774 106.585,111.988 104.963,112.639 103.933 C 114.081 101.652,117.565 98.205,119.850 96.800 C 120.777 96.229,122.148 95.135,122.896 94.368 C 123.707 93.537,125.024 92.718,126.154 92.343 C 127.197 91.997,129.197 90.960,130.598 90.039 C 133.141 88.368,135.982 87.272,137.802 87.259 C 139.886 87.245,144.039 86.096,147.128 84.679 C 149.449 83.615,151.941 82.874,155.865 82.081 C 159.437 81.359,162.382 80.511,164.292 79.655 C 170.575 76.839,170.460 76.846,207.678 76.939 C 235.539 77.009,238.597 77.076,240.628 77.664 M179.540 88.167 C 177.127 89.291,176.923 89.635,177.874 90.971 C 178.296 91.564,178.987 92.869,179.410 93.871 C 179.833 94.875,181.054 96.562,182.130 97.631 C 183.204 98.696,184.697 100.238,185.449 101.057 C 186.221 101.898,187.325 102.657,187.987 102.803 C 188.631 102.944,190.039 103.659,191.115 104.390 C 196.277 107.899,210.453 108.813,216.173 106.005 C 222.362 102.968,224.567 101.589,225.780 99.998 C 226.480 99.081,227.580 97.949,228.226 97.481 C 228.960 96.950,230.068 95.329,231.177 93.165 L 232.953 89.700 231.979 88.905 C 230.032 87.315,229.222 87.266,204.825 87.270 L 181.461 87.273 179.540 88.167 M229.399 89.026 C 230.362 89.485,230.663 89.825,230.480 90.243 C 230.341 90.563,229.868 91.827,229.429 93.052 C 228.760 94.922,228.372 95.435,227.022 96.236 C 225.948 96.873,225.079 97.809,224.410 99.050 C 223.566 100.615,223.187 100.954,222.009 101.196 C 219.943 101.622,216.135 103.303,214.375 104.567 C 211.349 106.739,198.852 106.950,196.255 104.872 C 194.800 103.709,192.810 102.720,190.015 101.773 C 186.689 100.645,186.428 100.467,185.524 98.694 C 185.060 97.783,184.145 96.833,183.178 96.259 C 181.736 95.403,179.904 91.897,179.791 89.776 C 179.709 88.235,226.264 87.531,229.399 89.026 " stroke="none" fill="#8c8c8c" fill-rule="evenodd"></path></g></svg>