<svg id="svg" version="1.1" xmlns="http://www.w3.org/2000/svg" xmlns:xlink="http://www.w3.org/1999/xlink" width="400" height="415.7894736842105" viewBox="0, 0, 400,415.7894736842105"><g id="svgg"><path id="path0" d="M172.514 91.566 C 170.894 91.763,170.153 92.101,169.198 93.078 C 167.581 94.732,165.252 95.481,160.064 96.015 C 154.646 96.573,152.847 97.041,151.600 98.215 C 149.780 99.930,147.133 100.771,141.544 101.411 C 133.936 102.282,133.825 102.311,133.073 103.583 C 132.267 104.948,130.585 105.781,126.543 106.814 C 123.035 107.712,123.336 107.532,122.465 109.238 C 122.099 109.954,121.530 110.676,121.200 110.842 C 120.870 111.008,119.790 111.516,118.800 111.972 C 117.595 112.526,116.802 113.224,116.400 114.082 C 116.070 114.788,114.999 115.922,114.020 116.602 C 112.793 117.455,112.134 118.252,111.895 119.172 C 111.388 121.129,110.400 122.441,108.987 123.031 C 107.931 123.473,107.662 123.881,107.249 125.677 C 106.529 128.801,105.175 131.292,103.703 132.200 C 102.704 132.816,102.258 133.506,101.762 135.200 C 100.946 137.987,99.441 140.624,98.202 141.435 C 97.674 141.782,96.946 142.905,96.586 143.932 C 95.319 147.540,94.788 148.434,93.444 149.227 C 92.405 149.840,91.983 150.446,91.637 151.817 C 90.789 155.188,89.345 157.904,88.046 158.576 C 86.633 159.307,86.294 159.868,85.634 162.572 C 85.100 164.759,84.097 166.396,82.186 168.202 C 81.353 168.989,80.679 170.211,80.234 171.743 C 79.588 173.964,78.398 175.667,77.217 176.061 C 76.773 176.209,76.765 176.692,77.170 178.839 L 77.660 181.438 80.643 182.577 C 83.404 183.631,84.571 184.531,85.800 186.550 C 86.020 186.912,87.217 187.469,88.459 187.788 C 90.879 188.410,92.670 189.477,94.617 191.457 C 95.377 192.231,96.704 192.948,98.157 193.370 C 100.391 194.020,102.400 195.549,102.400 196.600 C 102.400 196.865,103.975 197.592,105.900 198.214 C 109.263 199.301,110.282 199.990,112.316 202.551 C 113.087 203.521,113.437 203.365,114.678 201.500 C 115.301 200.565,116.482 199.471,117.303 199.068 C 118.591 198.436,118.885 198.024,119.444 196.068 C 119.892 194.500,120.696 193.099,122.049 191.528 C 123.184 190.210,124.363 188.280,124.857 186.928 C 126.698 181.890,130.136 180.964,132.302 184.924 C 132.955 186.118,133.014 190.326,133.211 250.400 C 133.426 315.641,133.430 315.794,135.018 317.381 C 136.859 319.223,135.997 319.201,205.277 319.190 C 279.034 319.179,274.880 319.380,276.642 315.740 C 276.846 315.319,277.086 287.395,277.200 251.000 C 277.423 179.579,277.217 184.439,280.093 182.952 C 282.432 181.743,284.176 182.983,285.591 186.862 C 286.142 188.374,287.188 190.061,288.411 191.412 C 289.615 192.742,290.533 194.215,290.822 195.280 C 291.563 198.013,291.938 198.560,293.542 199.238 C 294.556 199.667,295.271 200.341,295.723 201.295 C 296.567 203.073,297.412 203.424,298.309 202.371 C 300.346 199.979,301.289 199.317,303.845 198.485 C 305.360 197.992,306.900 197.591,307.267 197.594 C 307.643 197.597,308.254 196.948,308.667 196.108 C 309.296 194.827,309.842 194.435,312.518 193.339 C 314.296 192.611,315.985 191.618,316.448 191.030 C 317.586 189.584,320.282 188.092,322.361 187.760 C 324.100 187.482,324.756 187.011,326.073 185.099 C 326.443 184.562,328.087 183.518,329.727 182.780 L 332.709 181.438 333.205 179.219 C 333.479 177.999,333.788 176.775,333.894 176.500 C 333.999 176.225,333.830 176.000,333.518 176.000 C 332.482 176.000,330.898 173.832,330.235 171.507 C 329.675 169.541,328.379 167.602,327.625 167.599 C 327.070 167.598,325.209 163.977,324.646 161.804 C 324.305 160.487,323.823 159.341,323.574 159.258 C 321.529 158.576,320.169 156.190,318.610 150.543 C 318.480 150.072,317.831 149.461,317.168 149.187 C 315.856 148.643,315.273 147.716,314.224 144.505 C 313.833 143.310,313.091 142.058,312.496 141.590 C 310.901 140.335,309.662 138.276,309.021 135.817 C 308.305 133.067,308.224 132.936,306.781 132.190 C 305.415 131.484,304.574 130.013,303.430 126.325 C 302.762 124.171,302.329 123.468,301.210 122.716 C 300.446 122.202,299.614 121.336,299.361 120.791 C 297.802 117.433,297.423 116.800,296.968 116.800 C 296.133 116.800,294.105 114.872,293.843 113.830 C 293.666 113.124,292.904 112.529,291.060 111.658 C 289.065 110.715,288.406 110.173,287.983 109.129 C 287.359 107.586,286.926 107.215,285.742 107.206 C 283.439 107.190,279.376 105.486,277.866 103.903 L 276.332 102.295 270.666 101.552 C 264.223 100.707,262.208 100.079,260.620 98.421 C 259.403 97.151,258.060 96.841,250.078 95.989 C 245.104 95.458,243.024 94.774,241.301 93.104 C 240.272 92.107,239.516 91.782,237.699 91.555 C 234.880 91.203,175.421 91.213,172.514 91.566 M227.304 98.741 C 231.507 100.135,232.852 103.566,229.830 105.184 C 229.196 105.523,228.326 106.726,227.594 108.276 C 226.511 110.567,226.193 110.902,224.298 111.748 C 223.027 112.315,221.699 113.313,220.930 114.281 C 218.857 116.888,216.587 117.336,205.400 117.342 C 193.655 117.349,189.917 116.491,188.992 113.574 C 188.869 113.189,187.921 112.479,186.885 111.996 C 184.358 110.819,183.696 110.171,182.732 107.930 C 182.282 106.885,181.306 105.566,180.562 104.998 C 177.286 102.499,179.229 99.571,184.937 98.406 C 187.662 97.850,225.520 98.150,227.304 98.741 M169.200 99.427 C 172.462 99.917,174.302 102.038,175.233 106.382 C 175.599 108.086,175.917 108.559,177.332 109.503 C 178.249 110.114,179.298 111.209,179.663 111.935 C 180.499 113.600,181.575 114.800,182.231 114.800 C 182.937 114.800,185.200 116.762,185.200 117.374 C 185.200 118.256,186.546 119.105,188.400 119.389 C 191.798 119.912,195.494 121.203,196.988 122.391 C 198.909 123.917,199.974 124.094,206.266 123.933 L 211.455 123.800 213.629 122.301 C 215.341 121.121,216.737 120.592,220.199 119.809 C 222.617 119.263,224.642 118.677,224.699 118.508 C 225.151 117.172,226.649 115.455,227.772 114.986 C 229.165 114.404,230.080 113.424,231.302 111.204 C 231.688 110.503,232.531 109.730,233.176 109.487 C 234.466 109.000,234.876 108.314,235.533 105.547 C 237.109 98.898,245.201 96.700,250.718 101.422 C 252.342 102.812,253.590 103.143,260.352 103.973 C 266.435 104.721,268.885 107.182,268.964 112.627 C 269.000 115.040,268.790 115.698,266.236 121.200 C 265.454 122.883,265.400 123.690,265.400 133.611 L 265.400 144.223 266.887 147.211 C 269.983 153.431,269.759 147.068,269.894 232.870 L 270.014 309.539 269.042 310.670 L 268.069 311.800 205.935 311.905 C 139.394 312.018,142.085 312.099,140.981 309.964 C 140.068 308.197,140.113 162.883,141.030 156.314 C 141.704 151.475,142.801 147.683,144.023 145.968 C 146.282 142.795,145.874 124.856,143.420 119.471 C 138.887 109.525,141.718 104.656,152.636 103.616 C 157.026 103.197,158.340 102.836,159.187 101.815 C 160.343 100.423,164.676 98.732,166.400 99.001 C 166.950 99.087,168.210 99.279,169.200 99.427 M136.246 112.683 C 138.231 115.292,138.400 116.929,138.400 133.530 C 138.400 153.095,137.802 157.700,135.073 159.161 C 134.386 159.529,133.996 160.326,133.526 162.326 C 132.547 166.489,131.839 167.839,130.038 168.976 C 128.999 169.632,128.328 170.396,128.172 171.100 C 127.564 173.843,127.026 174.899,125.326 176.686 C 124.145 177.928,123.159 179.513,122.520 181.200 C 121.444 184.044,120.747 185.000,119.153 185.825 C 118.412 186.207,117.972 186.890,117.657 188.141 C 117.194 189.977,113.948 194.408,113.078 194.391 C 112.815 194.385,111.520 193.916,110.200 193.348 C 108.880 192.780,106.900 191.997,105.800 191.609 C 101.902 190.232,100.052 189.154,99.246 187.787 C 98.652 186.782,98.020 186.334,96.727 186.000 C 93.010 185.042,92.171 184.618,90.408 182.809 C 89.404 181.778,87.686 180.253,86.591 179.421 C 83.259 176.889,83.110 175.400,85.962 173.135 C 86.842 172.437,87.308 171.541,87.802 169.600 C 88.537 166.717,90.222 163.715,91.300 163.370 C 92.158 163.096,92.678 162.162,93.472 159.469 C 94.171 157.095,94.551 156.544,96.161 155.563 C 97.062 155.013,97.528 154.201,98.248 151.928 C 99.489 148.009,99.939 147.249,101.661 146.162 C 102.868 145.400,103.201 144.888,103.551 143.253 C 104.138 140.519,105.445 138.159,107.053 136.933 C 108.030 136.187,108.578 135.310,109.024 133.778 C 109.716 131.396,110.883 129.701,112.166 129.213 C 112.763 128.986,113.252 128.167,113.761 126.543 C 114.932 122.808,115.867 121.285,117.505 120.443 C 118.327 120.021,119.341 119.074,119.758 118.338 C 121.080 116.002,122.020 115.273,125.148 114.155 C 126.827 113.556,128.447 112.870,128.750 112.632 C 131.455 110.506,134.606 110.527,136.246 112.683 M280.624 112.140 C 282.151 112.876,284.529 113.890,285.908 114.391 C 288.306 115.263,289.006 115.849,290.928 118.588 C 291.329 119.159,292.369 120.075,293.238 120.624 C 294.821 121.623,296.526 124.595,297.080 127.317 C 297.213 127.973,297.740 128.659,298.354 128.976 C 299.987 129.821,300.673 130.808,301.416 133.382 C 301.879 134.985,302.493 136.097,303.293 136.782 C 305.029 138.268,306.268 140.389,306.959 143.053 C 307.301 144.371,307.875 145.575,308.268 145.800 C 310.164 146.882,311.175 148.404,312.214 151.737 C 312.808 153.641,313.439 155.200,313.616 155.200 C 314.425 155.200,316.390 157.370,316.799 158.713 C 317.681 161.610,318.491 163.113,319.394 163.525 C 320.434 163.998,322.800 168.421,322.800 169.890 C 322.800 171.191,323.262 171.968,325.176 173.882 C 327.550 176.256,327.317 176.894,322.875 180.200 C 321.988 180.860,321.035 181.811,320.757 182.313 C 320.078 183.539,316.571 185.499,314.452 185.838 C 313.037 186.064,312.571 186.378,311.772 187.645 C 310.668 189.393,309.687 189.979,305.780 191.223 C 304.251 191.710,302.800 192.265,302.556 192.456 C 301.741 193.096,297.583 194.368,297.016 194.151 C 295.959 193.745,293.574 190.233,292.987 188.218 C 292.506 186.567,292.128 186.054,290.911 185.400 C 289.678 184.737,289.209 184.087,288.168 181.600 C 287.478 179.950,286.323 177.970,285.601 177.200 C 283.727 175.199,283.187 174.274,282.636 172.113 C 282.253 170.614,281.820 169.981,280.618 169.164 C 278.764 167.905,278.189 166.868,277.197 162.989 C 276.582 160.582,276.165 159.769,275.041 158.783 C 272.503 156.554,272.001 152.290,272.000 132.973 C 272.000 111.689,273.280 108.596,280.624 112.140 " stroke="none" fill="#202020" fill-rule="evenodd"></path><path id="path1" d="M0.000 207.800 L 0.000 415.600 200.000 415.600 L 400.000 415.600 400.000 207.800 L 400.000 0.000 200.000 0.000 L 0.000 0.000 0.000 207.800 M240.766 88.416 C 245.296 88.881,249.623 90.063,250.452 91.063 C 251.393 92.198,253.468 92.806,258.519 93.426 C 264.702 94.185,267.799 95.048,269.405 96.458 C 270.443 97.369,271.604 97.757,275.782 98.589 C 281.406 99.708,283.355 100.454,284.261 101.837 C 284.609 102.368,285.999 103.188,287.566 103.787 C 289.092 104.370,290.777 105.357,291.435 106.052 C 292.076 106.730,293.662 108.010,294.960 108.898 C 298.018 110.989,300.561 113.664,301.741 116.032 C 302.259 117.071,303.313 118.475,304.085 119.152 C 304.991 119.948,305.798 121.237,306.366 122.796 C 306.944 124.381,307.833 125.789,308.960 126.904 C 310.530 128.457,312.400 132.196,312.400 133.781 C 312.400 134.085,313.093 134.881,313.939 135.552 C 315.116 136.484,315.830 137.611,316.976 140.343 C 317.897 142.540,318.995 144.420,319.829 145.228 C 320.639 146.013,321.606 147.647,322.234 149.290 C 322.899 151.029,323.690 152.338,324.389 152.855 C 325.769 153.876,326.938 155.942,327.776 158.842 C 328.271 160.558,328.787 161.377,329.971 162.328 C 331.119 163.252,331.812 164.323,332.659 166.484 C 333.331 168.198,334.490 170.174,335.478 171.287 C 339.515 175.835,338.999 182.613,334.420 185.189 C 333.126 185.916,331.674 187.045,331.192 187.696 C 330.270 188.943,327.091 190.559,324.665 191.014 C 323.642 191.206,322.831 191.768,321.851 192.964 C 320.804 194.241,319.781 194.917,317.589 195.776 C 315.887 196.444,313.920 197.605,312.789 198.610 C 311.710 199.568,309.967 200.612,308.800 201.000 C 307.618 201.393,305.885 202.436,304.770 203.427 C 300.445 207.268,294.018 207.331,290.616 203.566 C 289.240 202.042,287.592 198.923,287.606 197.867 C 287.610 197.610,286.849 196.744,285.917 195.942 C 284.741 194.930,283.912 193.715,283.211 191.972 C 280.381 184.943,280.402 184.489,280.379 252.760 C 280.368 286.332,280.223 315.022,280.057 316.515 C 279.603 320.603,278.481 321.573,273.645 322.058 C 265.992 322.826,134.776 322.296,133.304 321.492 C 130.359 319.883,130.623 325.919,130.400 255.018 C 130.219 197.384,130.139 191.268,129.550 190.000 L 128.899 188.600 127.304 192.000 C 126.190 194.375,125.361 195.601,124.555 196.066 C 123.753 196.529,123.170 197.385,122.649 198.866 C 119.902 206.674,110.905 208.959,105.475 203.228 C 104.501 202.200,103.270 201.431,101.895 200.992 C 100.502 200.547,99.262 199.766,98.194 198.661 C 96.976 197.402,95.864 196.758,93.594 196.000 C 91.220 195.207,90.225 194.613,88.788 193.130 C 87.792 192.101,86.442 191.131,85.788 190.973 C 83.839 190.503,81.491 189.203,79.984 187.758 C 79.205 187.012,77.600 185.906,76.418 185.301 C 73.237 183.672,72.815 182.895,72.762 178.560 C 72.713 174.538,73.169 173.171,75.102 171.544 C 75.802 170.955,76.747 169.301,77.586 167.196 C 78.559 164.752,79.405 163.351,80.601 162.200 C 81.680 161.162,82.444 159.968,82.776 158.800 C 83.523 156.179,84.604 154.236,85.941 153.111 C 87.280 151.984,88.171 150.416,88.598 148.433 C 88.764 147.663,89.642 146.265,90.608 145.232 C 91.684 144.082,92.729 142.355,93.411 140.599 C 94.200 138.568,95.016 137.305,96.386 135.997 C 97.757 134.689,98.356 133.762,98.570 132.619 C 99.001 130.322,100.602 127.395,101.955 126.432 C 102.756 125.861,103.476 124.694,104.209 122.777 C 104.930 120.890,105.675 119.672,106.470 119.085 C 107.122 118.603,108.220 117.149,108.911 115.853 C 110.355 113.143,112.907 110.440,115.400 108.979 C 116.351 108.421,117.910 107.187,118.865 106.237 C 120.101 105.004,121.235 104.324,122.811 103.869 C 124.226 103.459,125.450 102.773,126.211 101.963 C 127.929 100.132,130.007 99.352,135.160 98.600 C 140.160 97.871,141.186 97.580,141.929 96.686 C 142.900 95.515,146.458 94.373,151.575 93.589 C 157.383 92.699,158.008 92.513,160.195 91.029 C 162.142 89.708,165.032 88.863,169.053 88.438 C 173.777 87.940,235.939 87.920,240.766 88.416 M185.900 101.829 L 184.800 102.426 185.760 104.313 C 187.136 107.016,189.912 109.258,193.233 110.348 C 194.022 110.606,195.245 111.384,195.953 112.075 C 198.582 114.646,211.631 114.812,214.314 112.310 C 214.911 111.753,216.750 110.631,218.400 109.817 C 221.840 108.119,223.199 106.954,224.671 104.443 L 225.715 102.661 224.813 101.930 C 223.562 100.917,187.753 100.823,185.900 101.829 M164.731 105.403 C 164.619 105.514,162.474 105.878,159.964 106.210 C 150.125 107.514,147.078 109.913,147.963 115.659 C 149.927 128.403,148.465 155.275,145.614 158.837 C 143.564 161.398,143.600 160.005,143.600 236.411 C 143.600 305.137,143.628 307.901,144.331 308.538 C 145.421 309.524,264.905 309.562,266.311 308.577 L 267.200 307.955 267.200 237.222 C 267.200 160.891,267.202 160.985,265.171 159.088 C 264.070 158.060,263.333 156.475,262.798 153.985 C 262.110 150.779,261.787 121.904,262.382 116.785 C 263.208 109.686,261.246 107.786,251.644 106.380 C 248.650 105.942,245.892 105.487,245.516 105.370 C 243.897 104.864,239.324 106.728,238.810 108.103 C 237.421 111.816,236.727 112.883,233.600 116.118 C 229.241 120.629,228.164 121.438,224.978 122.594 C 223.509 123.126,222.021 123.975,221.587 124.525 C 218.195 128.838,193.323 128.783,188.792 124.453 C 188.093 123.785,186.594 122.934,185.461 122.563 C 181.648 121.313,173.813 113.954,172.582 110.467 C 171.271 106.752,171.402 106.894,168.476 106.023 C 165.570 105.157,165.060 105.073,164.731 105.403 M127.915 117.431 C 126.834 118.008,122.712 122.010,119.106 125.983 C 117.971 127.234,117.033 128.736,116.765 129.732 C 116.232 131.709,115.058 133.464,114.055 133.783 C 113.591 133.930,112.790 135.377,111.831 137.799 C 110.635 140.821,110.021 141.833,108.790 142.808 C 107.610 143.742,107.096 144.553,106.599 146.262 C 105.868 148.778,104.576 150.990,103.102 152.251 C 102.555 152.718,101.616 154.387,101.016 155.959 C 100.253 157.955,99.534 159.115,98.633 159.802 C 97.684 160.526,97.004 161.678,96.061 164.161 C 94.869 167.299,94.102 168.425,92.284 169.707 C 91.873 169.998,91.242 171.480,90.802 173.194 C 89.922 176.612,90.081 177.012,92.882 178.442 C 93.697 178.858,94.867 179.829,95.482 180.600 C 96.296 181.620,97.195 182.174,98.788 182.637 C 101.668 183.475,103.753 184.563,104.662 185.703 C 106.168 187.592,107.205 188.000,110.498 188.000 C 113.965 188.000,113.578 188.314,114.967 184.372 C 115.321 183.367,116.266 181.837,117.067 180.972 C 117.868 180.107,119.128 178.102,119.867 176.514 C 120.762 174.593,121.731 173.211,122.768 172.378 C 123.805 171.544,124.408 170.684,124.573 169.803 C 124.949 167.800,126.684 164.780,128.430 163.090 C 129.288 162.260,130.062 161.180,130.151 160.690 C 131.085 155.539,132.211 151.365,133.223 149.301 C 135.556 144.546,136.050 123.121,133.921 119.066 C 133.155 117.607,129.466 116.603,127.915 117.431 M279.468 117.373 C 276.057 118.290,275.728 119.282,275.350 129.800 C 274.990 139.806,275.602 145.826,277.369 149.650 C 278.136 151.311,279.130 154.494,279.598 156.789 C 280.559 161.508,280.667 161.762,282.402 163.400 C 283.798 164.718,284.968 166.782,285.957 169.670 C 286.395 170.951,287.034 171.843,287.965 172.474 C 288.960 173.149,289.627 174.136,290.424 176.111 C 291.031 177.613,292.235 179.599,293.125 180.565 C 294.924 182.517,295.773 183.992,296.178 185.872 C 296.913 189.287,303.019 189.117,306.456 185.586 C 307.777 184.228,311.522 182.400,312.981 182.400 C 313.285 182.400,314.121 181.657,314.841 180.749 C 315.560 179.840,316.700 178.864,317.374 178.580 C 318.536 178.089,320.400 176.603,320.400 176.167 C 320.400 174.006,318.885 170.414,317.377 169.000 C 316.128 167.829,315.366 166.597,314.535 164.402 C 313.775 162.394,312.870 160.867,311.796 159.776 C 310.761 158.725,309.949 157.379,309.504 155.974 C 309.055 154.559,308.193 153.135,307.034 151.895 C 305.439 150.188,303.600 146.518,303.600 145.040 C 303.600 144.438,301.685 142.400,301.120 142.400 C 300.700 142.400,298.732 138.221,298.006 135.786 C 297.685 134.710,297.130 133.945,296.343 133.493 C 295.614 133.075,294.852 132.086,294.353 130.908 C 292.922 127.534,292.266 126.464,291.323 125.959 C 290.816 125.687,290.400 125.299,290.400 125.096 C 290.400 124.318,282.181 116.669,281.514 116.827 C 281.451 116.842,280.531 117.088,279.468 117.373 " stroke="none" fill="#fbfbfb" fill-rule="evenodd"></path><path id="path2" d="M172.200 89.593 C 169.051 89.894,166.946 90.511,162.200 92.528 C 160.880 93.088,157.820 93.930,155.400 94.398 C 150.308 95.383,147.492 96.208,145.800 97.209 C 143.903 98.331,141.056 99.161,137.014 99.768 C 133.054 100.363,130.449 101.313,128.307 102.944 C 127.588 103.491,125.952 104.331,124.671 104.809 C 123.217 105.352,121.431 106.492,119.920 107.840 C 118.589 109.028,117.324 110.000,117.111 110.000 C 116.342 110.000,111.139 115.410,110.009 117.383 C 109.374 118.492,108.288 119.940,107.596 120.600 C 106.904 121.260,105.731 123.111,104.989 124.713 C 104.247 126.315,102.997 128.377,102.212 129.295 C 101.426 130.213,100.399 132.019,99.928 133.309 C 99.456 134.604,98.328 136.494,97.410 137.528 C 96.496 138.557,95.220 140.660,94.576 142.200 C 93.931 143.740,92.816 145.654,92.098 146.452 C 91.380 147.251,90.272 149.051,89.634 150.452 C 88.997 151.854,87.596 154.189,86.521 155.642 C 85.446 157.095,84.316 159.042,84.010 159.968 C 83.705 160.895,82.745 162.458,81.878 163.444 C 81.011 164.429,79.706 166.622,78.978 168.317 C 78.250 170.013,77.041 172.120,76.291 173.000 C 74.113 175.557,73.911 176.154,74.218 179.128 C 74.546 182.299,74.946 182.828,78.252 184.456 C 79.633 185.135,81.481 186.307,82.359 187.058 C 83.237 187.810,84.928 188.854,86.116 189.380 C 87.304 189.905,89.088 191.038,90.079 191.896 C 91.071 192.754,93.187 193.983,94.782 194.628 C 96.376 195.273,98.471 196.488,99.436 197.330 C 100.401 198.171,102.414 199.455,103.908 200.182 C 105.403 200.910,107.160 201.951,107.813 202.496 C 112.788 206.650,118.286 204.778,121.349 197.887 C 121.859 196.739,122.837 195.255,123.522 194.590 C 124.207 193.924,125.573 191.737,126.558 189.730 C 128.678 185.406,128.955 185.166,129.845 186.887 C 131.626 190.330,131.589 188.927,131.613 253.600 C 131.635 316.387,131.668 317.769,133.174 319.372 C 134.845 321.151,136.795 321.200,205.427 321.201 C 274.813 321.201,275.509 321.182,277.350 319.242 C 279.161 317.334,279.200 315.905,279.200 251.442 C 279.200 196.628,279.261 190.757,279.851 188.971 C 281.149 185.041,281.875 185.145,283.903 189.556 C 284.673 191.230,286.009 193.370,286.871 194.312 C 287.733 195.254,288.794 196.853,289.228 197.866 C 292.308 205.051,297.187 206.560,303.201 202.187 C 304.191 201.467,306.048 200.415,307.328 199.849 C 308.608 199.283,310.435 198.140,311.388 197.310 C 312.341 196.479,314.397 195.271,315.958 194.625 C 317.518 193.978,319.291 192.921,319.897 192.274 C 320.504 191.628,322.440 190.430,324.200 189.612 C 325.960 188.794,328.625 187.197,330.121 186.062 C 331.618 184.928,333.007 184.000,333.207 184.000 C 336.411 184.000,337.624 177.171,334.995 173.931 C 334.223 172.979,332.805 170.580,331.845 168.600 C 330.885 166.620,329.602 164.550,328.994 164.000 C 328.387 163.450,327.270 161.650,326.512 160.000 C 325.755 158.350,324.445 156.100,323.602 155.000 C 322.759 153.900,321.611 151.959,321.051 150.686 C 320.490 149.414,319.379 147.614,318.582 146.686 C 317.784 145.759,316.511 143.562,315.753 141.804 C 314.995 140.046,313.767 137.976,313.024 137.204 C 312.281 136.432,311.127 134.583,310.460 133.095 C 309.792 131.608,308.626 129.628,307.868 128.695 C 307.110 127.763,305.832 125.608,305.029 123.906 C 304.226 122.204,303.213 120.621,302.778 120.388 C 302.343 120.155,301.442 118.999,300.776 117.818 C 299.624 115.777,293.644 109.600,292.820 109.600 C 292.605 109.600,291.357 108.643,290.046 107.473 C 288.719 106.289,286.951 105.132,286.060 104.865 C 285.180 104.601,283.501 103.740,282.329 102.951 C 279.578 101.097,278.236 100.594,273.511 99.648 C 271.189 99.182,268.207 98.217,266.111 97.253 C 263.309 95.963,261.396 95.430,256.635 94.611 C 252.296 93.865,249.843 93.215,247.635 92.224 C 241.163 89.320,243.342 89.475,207.600 89.376 C 189.890 89.328,173.960 89.425,172.200 89.593 M238.754 90.408 C 240.697 90.660,242.888 91.327,245.154 92.354 C 248.925 94.063,250.510 94.480,256.800 95.416 C 260.093 95.906,261.716 96.391,264.312 97.661 C 266.662 98.811,268.990 99.553,272.323 100.217 C 277.834 101.313,278.641 101.590,280.715 103.093 C 282.180 104.154,283.644 104.868,286.692 106.007 C 287.403 106.273,288.663 107.202,289.492 108.071 C 290.321 108.940,291.540 109.936,292.200 110.286 C 294.035 111.258,298.753 115.980,299.907 118.000 C 300.473 118.990,301.592 120.450,302.394 121.244 C 303.250 122.091,304.209 123.660,304.716 125.044 C 305.191 126.340,306.396 128.390,307.394 129.600 C 308.392 130.810,309.514 132.610,309.887 133.600 C 310.823 136.080,311.957 137.949,312.798 138.399 C 313.187 138.607,314.112 140.241,314.853 142.029 C 315.637 143.923,316.899 146.070,317.873 147.170 C 318.794 148.208,320.012 150.220,320.580 151.641 C 321.149 153.061,322.411 155.194,323.384 156.381 C 324.358 157.568,325.539 159.568,326.010 160.825 C 326.480 162.083,327.411 163.627,328.080 164.256 C 328.748 164.885,330.061 167.020,330.997 169.000 C 331.934 170.980,333.353 173.298,334.150 174.150 C 335.477 175.569,335.597 175.891,335.560 177.950 C 335.496 181.575,335.253 182.003,332.448 183.436 C 331.058 184.146,329.443 185.165,328.860 185.699 C 327.220 187.203,325.603 188.183,323.150 189.158 C 321.912 189.650,320.382 190.599,319.750 191.267 C 319.117 191.935,317.070 193.192,315.200 194.060 C 313.330 194.928,311.165 196.257,310.388 197.014 C 309.611 197.771,307.834 198.838,306.438 199.385 C 305.042 199.932,302.962 201.103,301.816 201.988 C 297.172 205.570,293.125 203.958,289.799 197.200 C 289.203 195.990,288.171 194.427,287.506 193.727 C 286.840 193.027,285.464 190.777,284.448 188.727 C 282.383 184.563,281.461 183.932,280.217 185.831 C 278.594 188.308,278.618 187.411,278.406 252.600 C 278.176 323.311,278.393 318.473,275.399 319.599 C 272.980 320.508,137.417 320.510,135.016 319.600 C 132.031 318.469,132.237 323.066,131.998 252.200 C 131.771 185.084,131.835 187.112,129.872 185.268 L 128.944 184.396 128.088 185.306 C 127.618 185.807,126.522 187.756,125.652 189.639 C 124.749 191.593,123.655 193.334,123.102 193.696 C 122.570 194.045,121.558 195.536,120.854 197.010 C 117.592 203.839,111.871 206.018,108.375 201.763 C 108.059 201.378,106.360 200.393,104.600 199.575 C 102.840 198.756,100.950 197.593,100.400 196.989 C 99.850 196.386,97.555 195.025,95.300 193.966 C 93.045 192.906,91.200 191.874,91.200 191.673 C 91.200 191.153,88.465 189.412,86.775 188.856 C 85.992 188.599,84.316 187.513,83.052 186.444 C 81.787 185.375,79.600 184.010,78.191 183.411 C 75.416 182.232,75.384 182.184,74.993 178.530 C 74.729 176.062,74.730 176.058,76.339 174.313 C 77.228 173.348,78.744 170.854,79.722 168.746 C 80.697 166.645,81.775 164.818,82.117 164.687 C 82.459 164.556,83.450 162.953,84.320 161.124 C 85.190 159.296,86.632 156.917,87.525 155.839 C 88.418 154.760,89.554 152.792,90.050 151.467 C 90.546 150.141,91.682 148.233,92.576 147.226 C 93.469 146.219,94.722 144.137,95.361 142.598 C 95.999 141.059,97.111 139.170,97.833 138.400 C 98.554 137.630,99.761 135.650,100.515 134.000 C 101.270 132.350,102.394 130.461,103.014 129.803 C 103.634 129.145,104.811 127.165,105.630 125.403 C 106.448 123.641,107.693 121.660,108.396 121.000 C 109.098 120.340,110.042 119.084,110.492 118.208 C 111.495 116.257,115.647 111.872,117.579 110.723 C 118.361 110.258,119.810 109.107,120.800 108.166 C 121.982 107.041,123.554 106.097,125.376 105.416 C 126.904 104.845,128.704 103.960,129.376 103.448 C 131.616 101.746,133.272 101.130,137.153 100.554 C 142.033 99.830,144.677 99.068,147.571 97.551 C 149.177 96.709,151.659 95.992,155.795 95.174 C 160.173 94.309,162.639 93.580,165.245 92.379 C 167.385 91.394,169.761 90.626,171.286 90.428 C 174.881 89.961,235.173 89.943,238.754 90.408 M185.412 99.830 C 184.538 100.154,183.344 100.878,182.759 101.440 L 181.693 102.460 183.503 105.654 C 184.498 107.410,185.692 109.116,186.156 109.445 C 194.806 115.575,196.064 116.000,205.556 116.000 C 213.429 116.000,214.709 115.709,219.037 112.937 C 224.534 109.417,225.299 108.718,227.047 105.609 C 228.971 102.188,228.943 101.953,226.453 100.489 L 224.600 99.400 205.800 99.320 C 190.087 99.254,186.739 99.338,185.412 99.830 M224.913 100.545 C 228.135 101.909,227.266 106.332,223.236 109.077 C 214.689 114.898,213.413 115.341,205.200 115.341 C 197.641 115.341,197.043 115.179,191.000 111.486 C 183.635 106.985,181.358 102.807,185.171 100.791 C 187.050 99.798,222.628 99.578,224.913 100.545 M163.802 102.206 C 162.287 103.137,158.198 104.212,152.370 105.213 C 146.195 106.273,142.825 110.698,144.763 115.202 C 147.756 122.159,147.170 146.020,143.791 154.768 C 141.564 160.535,141.616 158.578,141.608 236.131 L 141.600 308.462 142.769 309.631 L 143.938 310.800 205.200 310.800 L 266.462 310.800 267.637 309.625 L 268.812 308.449 268.706 234.125 L 268.600 159.800 267.462 156.800 C 266.836 155.150,266.052 153.080,265.718 152.200 C 263.324 145.874,263.350 121.112,265.756 115.153 L 266.711 112.791 265.398 110.052 C 263.763 106.641,262.568 105.982,255.895 104.812 C 250.722 103.905,248.306 103.189,246.176 101.933 L 244.770 101.104 242.285 101.997 C 239.110 103.139,238.162 104.017,236.757 107.119 C 234.569 111.950,226.605 119.693,222.519 120.962 C 221.244 121.358,219.362 122.192,218.337 122.814 C 212.504 126.361,199.769 126.562,193.000 123.216 C 191.240 122.346,188.751 121.248,187.468 120.776 C 183.711 119.395,175.005 110.930,173.975 107.657 C 173.007 104.581,171.870 103.393,168.810 102.259 C 165.395 100.993,165.772 100.997,163.802 102.206 M171.355 104.755 C 171.770 105.110,172.620 106.532,173.245 107.916 C 175.365 112.611,182.903 120.001,187.154 121.551 C 188.442 122.021,190.123 122.831,190.890 123.351 C 196.237 126.980,214.209 126.972,219.595 123.339 C 220.362 122.821,222.218 121.928,223.721 121.354 C 227.660 119.849,235.075 112.509,237.269 107.943 C 238.920 104.508,238.905 104.522,242.170 103.379 L 244.540 102.550 246.777 103.453 C 248.008 103.950,251.050 104.723,253.539 105.171 C 261.696 106.640,262.473 107.034,264.208 110.581 L 265.266 112.743 264.346 116.272 C 262.167 124.623,263.169 149.550,265.936 155.855 C 268.304 161.250,268.158 156.327,268.292 235.061 L 268.417 307.922 267.178 309.161 L 265.938 310.400 205.400 310.400 L 144.861 310.400 143.624 309.359 L 142.388 308.318 142.494 234.459 L 142.600 160.600 143.461 158.400 C 143.935 157.190,144.598 155.660,144.934 155.000 C 147.250 150.456,148.072 122.748,146.094 115.891 L 145.198 112.782 146.411 110.378 C 148.019 107.192,148.999 106.671,155.768 105.399 C 158.880 104.815,162.410 103.936,163.613 103.446 L 165.800 102.556 168.200 103.332 C 169.520 103.760,170.940 104.400,171.355 104.755 M126.188 115.591 C 122.923 117.175,116.877 123.637,115.200 127.335 C 114.563 128.741,113.357 130.610,112.520 131.487 C 111.677 132.371,110.560 134.208,110.012 135.611 C 109.468 137.003,108.274 139.020,107.357 140.093 C 106.441 141.167,105.374 142.890,104.986 143.922 C 104.264 145.845,103.145 147.655,101.922 148.878 C 101.094 149.706,99.890 152.038,99.217 154.120 C 98.946 154.955,97.887 156.602,96.863 157.778 C 95.812 158.985,94.592 160.986,94.063 162.369 C 93.548 163.717,92.373 165.703,91.453 166.782 C 90.532 167.860,89.441 169.701,89.028 170.872 C 88.615 172.042,87.914 173.789,87.469 174.754 L 86.661 176.508 88.662 178.354 C 92.388 181.791,94.991 183.645,97.686 184.781 C 99.163 185.404,101.119 186.553,102.031 187.334 C 107.835 192.301,114.007 192.303,116.232 187.338 C 116.741 186.204,117.954 184.377,118.929 183.279 C 119.955 182.125,121.103 180.226,121.651 178.776 C 122.227 177.255,123.180 175.704,124.074 174.834 C 124.884 174.045,126.084 172.203,126.739 170.739 C 127.395 169.276,128.552 167.386,129.311 166.539 C 131.003 164.652,131.699 163.305,132.585 160.200 C 132.961 158.880,133.793 156.880,134.432 155.756 C 136.680 151.805,137.000 148.990,137.000 133.200 L 137.000 119.000 135.871 116.700 L 134.741 114.400 131.671 114.410 C 129.105 114.419,128.203 114.613,126.188 115.591 M275.269 115.504 C 273.590 117.861,273.419 119.534,273.444 133.400 C 273.470 148.541,273.834 151.589,276.144 155.999 C 276.903 157.448,277.740 159.434,278.003 160.410 C 278.640 162.775,280.106 165.613,281.201 166.600 C 281.689 167.040,282.771 168.750,283.604 170.400 C 284.437 172.050,285.606 173.850,286.202 174.400 C 286.799 174.950,287.987 176.910,288.843 178.755 C 289.699 180.600,291.078 182.850,291.908 183.755 C 292.739 184.660,293.925 186.442,294.546 187.715 C 296.128 190.962,296.751 191.288,300.482 190.815 C 304.103 190.356,307.323 189.009,309.497 187.046 C 310.375 186.252,312.151 185.136,313.443 184.564 C 314.734 183.993,316.537 182.867,317.449 182.063 C 318.360 181.258,319.712 180.166,320.453 179.636 C 321.194 179.106,322.223 178.156,322.740 177.525 L 323.680 176.377 322.676 173.888 C 322.124 172.520,321.437 170.771,321.148 170.003 C 320.859 169.235,320.033 167.953,319.313 167.156 C 318.592 166.359,317.215 164.008,316.251 161.932 C 315.181 159.626,314.105 157.899,313.487 157.494 C 312.862 157.084,312.041 155.754,311.338 154.008 C 310.712 152.456,309.525 150.334,308.700 149.293 C 307.875 148.252,306.504 145.960,305.653 144.200 C 304.802 142.440,303.638 140.569,303.066 140.043 C 302.495 139.517,301.464 137.717,300.775 136.043 C 300.045 134.270,298.886 132.332,297.997 131.400 C 297.159 130.520,295.938 128.630,295.284 127.200 C 291.247 118.365,278.525 110.931,275.269 115.504 M134.694 116.364 C 137.814 120.385,137.176 147.002,133.777 154.600 C 133.186 155.920,132.388 158.090,132.002 159.422 C 131.136 162.414,130.336 163.990,128.785 165.756 C 128.125 166.508,127.065 168.269,126.430 169.671 C 125.794 171.072,124.606 172.934,123.788 173.809 C 122.971 174.684,121.714 176.671,120.996 178.224 C 120.277 179.777,118.983 181.865,118.118 182.863 C 117.254 183.861,116.306 185.291,116.010 186.039 C 114.008 191.107,108.667 191.510,103.200 187.007 C 101.990 186.010,99.826 184.745,98.391 184.197 C 95.970 183.272,93.439 181.502,89.494 177.975 L 87.900 176.550 88.993 173.375 C 90.338 169.466,90.530 169.101,92.225 167.225 C 92.973 166.397,94.145 164.388,94.831 162.760 C 95.516 161.132,96.679 159.170,97.415 158.400 C 98.151 157.630,99.316 155.741,100.004 154.201 C 100.692 152.662,101.947 150.502,102.793 149.401 C 103.639 148.301,104.792 146.353,105.355 145.073 C 105.919 143.793,107.071 141.961,107.915 141.002 C 108.759 140.043,109.958 137.996,110.579 136.452 C 111.201 134.908,112.238 133.140,112.885 132.523 C 113.532 131.905,114.858 129.870,115.833 128.000 C 118.033 123.778,123.540 117.899,126.833 116.259 C 129.283 115.038,133.710 115.097,134.694 116.364 M283.685 116.243 C 286.632 117.736,292.774 124.214,294.643 127.800 C 295.446 129.340,296.691 131.230,297.410 132.000 C 298.128 132.770,299.251 134.689,299.904 136.264 C 300.558 137.840,301.826 140.000,302.723 141.064 C 303.619 142.129,304.746 144.029,305.227 145.287 C 305.708 146.545,306.717 148.294,307.471 149.174 C 308.224 150.054,309.476 152.150,310.253 153.831 C 311.029 155.513,312.335 157.634,313.154 158.544 C 313.973 159.455,315.159 161.439,315.789 162.954 C 316.420 164.469,317.606 166.483,318.426 167.430 C 319.245 168.376,320.231 170.016,320.617 171.075 C 321.003 172.134,321.638 173.754,322.027 174.676 L 322.734 176.352 320.811 178.076 C 316.877 181.602,315.169 182.858,312.914 183.887 C 311.641 184.467,309.472 185.804,308.094 186.857 C 302.193 191.367,297.004 191.206,294.770 186.443 C 294.295 185.429,293.273 183.897,292.499 183.039 C 291.725 182.180,290.467 180.110,289.703 178.439 C 288.940 176.767,287.710 174.768,286.969 173.995 C 286.229 173.223,285.064 171.436,284.381 170.024 C 283.697 168.613,282.545 166.725,281.822 165.829 C 280.108 163.707,279.724 162.941,278.095 158.400 C 277.345 156.310,276.310 153.430,275.795 152.000 C 274.509 148.434,274.000 143.129,274.000 133.305 C 274.000 119.264,274.739 116.002,278.020 115.560 C 281.181 115.134,281.595 115.184,283.685 116.243 " stroke="none" fill="#8c8c8c" fill-rule="evenodd"></path><path id="path3" d="M171.286 90.428 C 169.761 90.626,167.385 91.394,165.245 92.379 C 162.639 93.580,160.173 94.309,155.795 95.174 C 151.659 95.992,149.177 96.709,147.571 97.551 C 144.677 99.068,142.033 99.830,137.153 100.554 C 133.272 101.130,131.616 101.746,129.376 103.448 C 128.704 103.960,126.904 104.845,125.376 105.416 C 123.554 106.097,121.982 107.041,120.800 108.166 C 119.810 109.107,118.361 110.258,117.579 110.723 C 115.647 111.872,111.495 116.257,110.492 118.208 C 110.042 119.084,109.098 120.340,108.396 121.000 C 107.693 121.660,106.448 123.641,105.630 125.403 C 104.811 127.165,103.634 129.145,103.014 129.803 C 102.394 130.461,101.270 132.350,100.515 134.000 C 99.761 135.650,98.554 137.630,97.833 138.400 C 97.111 139.170,95.999 141.059,95.361 142.598 C 94.722 144.137,93.469 146.219,92.576 147.226 C 91.682 148.233,90.546 150.141,90.050 151.467 C 89.554 152.792,88.418 154.760,87.525 155.839 C 86.632 156.917,85.190 159.296,84.320 161.124 C 83.450 162.953,82.459 164.556,82.117 164.687 C 81.775 164.818,80.697 166.645,79.722 168.746 C 78.744 170.854,77.228 173.348,76.339 174.313 C 74.730 176.058,74.729 176.062,74.993 178.530 C 75.384 182.184,75.416 182.232,78.191 183.411 C 79.600 184.010,81.787 185.375,83.052 186.444 C 84.316 187.513,85.992 188.599,86.775 188.856 C 88.465 189.412,91.200 191.153,91.200 191.673 C 91.200 191.874,93.045 192.906,95.300 193.966 C 97.555 195.025,99.850 196.386,100.400 196.989 C 100.950 197.593,102.840 198.756,104.600 199.575 C 106.360 200.393,108.059 201.378,108.375 201.763 C 111.871 206.018,117.592 203.839,120.854 197.010 C 121.558 195.536,122.570 194.045,123.102 193.696 C 123.655 193.334,124.749 191.593,125.652 189.639 C 126.522 187.756,127.618 185.807,128.088 185.306 L 128.944 184.396 129.872 185.268 C 131.835 187.112,131.771 185.084,131.998 252.200 C 132.237 323.066,132.031 318.469,135.016 319.600 C 137.417 320.510,272.980 320.508,275.399 319.599 C 278.393 318.473,278.176 323.311,278.406 252.600 C 278.618 187.411,278.594 188.308,280.217 185.831 C 281.461 183.932,282.383 184.563,284.448 188.727 C 285.464 190.777,286.840 193.027,287.506 193.727 C 288.171 194.427,289.203 195.990,289.799 197.200 C 293.125 203.958,297.172 205.570,301.816 201.988 C 302.962 201.103,305.042 199.932,306.438 199.385 C 307.834 198.838,309.611 197.771,310.388 197.014 C 311.165 196.257,313.330 194.928,315.200 194.060 C 317.070 193.192,319.117 191.935,319.750 191.267 C 320.382 190.599,321.912 189.650,323.150 189.158 C 325.603 188.183,327.220 187.203,328.860 185.699 C 329.443 185.165,331.058 184.146,332.448 183.436 C 335.253 182.003,335.496 181.575,335.560 177.950 C 335.597 175.891,335.477 175.569,334.150 174.150 C 333.353 173.298,331.934 170.980,330.997 169.000 C 330.061 167.020,328.748 164.885,328.080 164.256 C 327.411 163.627,326.480 162.083,326.010 160.825 C 325.539 159.568,324.358 157.568,323.384 156.381 C 322.411 155.194,321.149 153.061,320.580 151.641 C 320.012 150.220,318.794 148.208,317.873 147.170 C 316.899 146.070,315.637 143.923,314.853 142.029 C 314.112 140.241,313.187 138.607,312.798 138.399 C 311.957 137.949,310.823 136.080,309.887 133.600 C 309.514 132.610,308.392 130.810,307.394 129.600 C 306.396 128.390,305.191 126.340,304.716 125.044 C 304.209 123.660,303.250 122.091,302.394 121.244 C 301.592 120.450,300.473 118.990,299.907 118.000 C 298.753 115.980,294.035 111.258,292.200 110.286 C 291.540 109.936,290.321 108.940,289.492 108.071 C 288.663 107.202,287.403 106.273,286.692 106.007 C 283.644 104.868,282.180 104.154,280.715 103.093 C 278.641 101.590,277.834 101.313,272.323 100.217 C 268.990 99.553,266.662 98.811,264.312 97.661 C 261.716 96.391,260.093 95.906,256.800 95.416 C 250.510 94.480,248.925 94.063,245.154 92.354 C 242.888 91.327,240.697 90.660,238.754 90.408 C 235.173 89.943,174.881 89.961,171.286 90.428 M237.699 91.555 C 239.516 91.782,240.272 92.107,241.301 93.104 C 243.024 94.774,245.104 95.458,250.078 95.989 C 258.060 96.841,259.403 97.151,260.620 98.421 C 262.208 100.079,264.223 100.707,270.666 101.552 L 276.332 102.295 277.866 103.903 C 279.376 105.486,283.439 107.190,285.742 107.206 C 286.926 107.215,287.359 107.586,287.983 109.129 C 288.406 110.173,289.065 110.715,291.060 111.658 C 292.904 112.529,293.666 113.124,293.843 113.830 C 294.105 114.872,296.133 116.800,296.968 116.800 C 297.423 116.800,297.802 117.433,299.361 120.791 C 299.614 121.336,300.446 122.202,301.210 122.716 C 302.329 123.468,302.762 124.171,303.430 126.325 C 304.574 130.013,305.415 131.484,306.781 132.190 C 308.224 132.936,308.305 133.067,309.021 135.817 C 309.662 138.276,310.901 140.335,312.496 141.590 C 313.091 142.058,313.833 143.310,314.224 144.505 C 315.273 147.716,315.856 148.643,317.168 149.187 C 317.831 149.461,318.480 150.072,318.610 150.543 C 320.169 156.190,321.529 158.576,323.574 159.258 C 323.823 159.341,324.305 160.487,324.646 161.804 C 325.209 163.977,327.070 167.598,327.625 167.599 C 328.379 167.602,329.675 169.541,330.235 171.507 C 330.898 173.832,332.482 176.000,333.518 176.000 C 333.830 176.000,333.999 176.225,333.894 176.500 C 333.788 176.775,333.479 177.999,333.205 179.219 L 332.709 181.438 329.727 182.780 C 328.087 183.518,326.443 184.562,326.073 185.099 C 324.756 187.011,324.100 187.482,322.361 187.760 C 320.282 188.092,317.586 189.584,316.448 191.030 C 315.985 191.618,314.296 192.611,312.518 193.339 C 309.842 194.435,309.296 194.827,308.667 196.108 C 308.254 196.948,307.643 197.597,307.267 197.594 C 306.900 197.591,305.360 197.992,303.845 198.485 C 301.289 199.317,300.346 199.979,298.309 202.371 C 297.412 203.424,296.567 203.073,295.723 201.295 C 295.271 200.341,294.556 199.667,293.542 199.238 C 291.938 198.560,291.563 198.013,290.822 195.280 C 290.533 194.215,289.615 192.742,288.411 191.412 C 287.188 190.061,286.142 188.374,285.591 186.862 C 284.176 182.983,282.432 181.743,280.093 182.952 C 277.217 184.439,277.423 179.579,277.200 251.000 C 277.086 287.395,276.846 315.319,276.642 315.740 C 274.880 319.380,279.034 319.179,205.277 319.190 C 135.997 319.201,136.859 319.223,135.018 317.381 C 133.430 315.794,133.426 315.641,133.211 250.400 C 133.014 190.326,132.955 186.118,132.302 184.924 C 130.136 180.964,126.698 181.890,124.857 186.928 C 124.363 188.280,123.184 190.210,122.049 191.528 C 120.696 193.099,119.892 194.500,119.444 196.068 C 118.885 198.024,118.591 198.436,117.303 199.068 C 116.482 199.471,115.301 200.565,114.678 201.500 C 113.437 203.365,113.087 203.521,112.316 202.551 C 110.282 199.990,109.263 199.301,105.900 198.214 C 103.975 197.592,102.400 196.865,102.400 196.600 C 102.400 195.549,100.391 194.020,98.157 193.370 C 96.704 192.948,95.377 192.231,94.617 191.457 C 92.670 189.477,90.879 188.410,88.459 187.788 C 87.217 187.469,86.020 186.912,85.800 186.550 C 84.571 184.531,83.404 183.631,80.643 182.577 L 77.660 181.438 77.170 178.839 C 76.765 176.692,76.773 176.209,77.217 176.061 C 78.398 175.667,79.588 173.964,80.234 171.743 C 80.679 170.211,81.353 168.989,82.186 168.202 C 84.097 166.396,85.100 164.759,85.634 162.572 C 86.294 159.868,86.633 159.307,88.046 158.576 C 89.345 157.904,90.789 155.188,91.637 151.817 C 91.983 150.446,92.405 149.840,93.444 149.227 C 94.788 148.434,95.319 147.540,96.586 143.932 C 96.946 142.905,97.674 141.782,98.202 141.435 C 99.441 140.624,100.946 137.987,101.762 135.200 C 102.258 133.506,102.704 132.816,103.703 132.200 C 105.175 131.292,106.529 128.801,107.249 125.677 C 107.662 123.881,107.931 123.473,108.987 123.031 C 110.400 122.441,111.388 121.129,111.895 119.172 C 112.134 118.252,112.793 117.455,114.020 116.602 C 114.999 115.922,116.070 114.788,116.400 114.082 C 116.802 113.224,117.595 112.526,118.800 111.972 C 119.790 111.516,120.870 111.008,121.200 110.842 C 121.530 110.676,122.099 109.954,122.465 109.238 C 123.336 107.532,123.035 107.712,126.543 106.814 C 130.585 105.781,132.267 104.948,133.073 103.583 C 133.825 102.311,133.936 102.282,141.544 101.411 C 147.133 100.771,149.780 99.930,151.600 98.215 C 152.847 97.041,154.646 96.573,160.064 96.015 C 165.252 95.481,167.581 94.732,169.198 93.078 C 170.153 92.101,170.894 91.763,172.514 91.566 C 175.421 91.213,234.880 91.203,237.699 91.555 M184.937 98.406 C 179.229 99.571,177.286 102.499,180.562 104.998 C 181.306 105.566,182.282 106.885,182.732 107.930 C 183.696 110.171,184.358 110.819,186.885 111.996 C 187.921 112.479,188.869 113.189,188.992 113.574 C 189.917 116.491,193.655 117.349,205.400 117.342 C 216.587 117.336,218.857 116.888,220.930 114.281 C 221.699 113.313,223.027 112.315,224.298 111.748 C 226.193 110.902,226.511 110.567,227.594 108.276 C 228.326 106.726,229.196 105.523,229.830 105.184 C 232.852 103.566,231.507 100.135,227.304 98.741 C 225.520 98.150,187.662 97.850,184.937 98.406 M163.800 99.355 C 161.671 100.034,159.867 100.997,159.187 101.815 C 158.340 102.836,157.026 103.197,152.636 103.616 C 141.718 104.656,138.887 109.525,143.420 119.471 C 145.874 124.856,146.282 142.795,144.023 145.968 C 142.801 147.683,141.704 151.475,141.030 156.314 C 140.113 162.883,140.068 308.197,140.981 309.964 C 142.085 312.099,139.394 312.018,205.935 311.905 L 268.069 311.800 269.042 310.670 L 270.014 309.539 269.894 232.870 C 269.759 147.068,269.983 153.431,266.887 147.211 L 265.400 144.223 265.400 133.611 C 265.400 123.690,265.454 122.883,266.236 121.200 C 268.790 115.698,269.000 115.040,268.964 112.627 C 268.885 107.182,266.435 104.721,260.352 103.973 C 253.590 103.143,252.342 102.812,250.718 101.422 C 245.201 96.700,237.109 98.898,235.533 105.547 C 234.876 108.314,234.466 109.000,233.176 109.487 C 232.531 109.730,231.688 110.503,231.302 111.204 C 230.080 113.424,229.165 114.404,227.772 114.986 C 226.649 115.455,225.151 117.172,224.699 118.508 C 224.642 118.677,222.617 119.263,220.199 119.809 C 216.737 120.592,215.341 121.121,213.629 122.301 L 211.455 123.800 206.266 123.933 C 199.974 124.094,198.909 123.917,196.988 122.391 C 195.494 121.203,191.798 119.912,188.400 119.389 C 186.546 119.105,185.200 118.256,185.200 117.374 C 185.200 116.762,182.937 114.800,182.231 114.800 C 181.575 114.800,180.499 113.600,179.663 111.935 C 179.298 111.209,178.249 110.114,177.332 109.503 C 175.917 108.559,175.599 108.086,175.233 106.382 C 174.302 102.038,172.462 99.917,169.200 99.427 C 168.210 99.279,166.950 99.087,166.400 99.001 C 165.850 98.915,164.680 99.074,163.800 99.355 M226.453 100.489 C 228.943 101.953,228.971 102.188,227.047 105.609 C 225.299 108.718,224.534 109.417,219.037 112.937 C 214.709 115.709,213.429 116.000,205.556 116.000 C 196.064 116.000,194.806 115.575,186.156 109.445 C 185.692 109.116,184.498 107.410,183.503 105.654 L 181.693 102.460 182.759 101.440 C 185.024 99.269,185.401 99.234,205.800 99.320 L 224.600 99.400 226.453 100.489 M168.810 102.259 C 171.870 103.393,173.007 104.581,173.975 107.657 C 175.005 110.930,183.711 119.395,187.468 120.776 C 188.751 121.248,191.240 122.346,193.000 123.216 C 199.769 126.562,212.504 126.361,218.337 122.814 C 219.362 122.192,221.244 121.358,222.519 120.962 C 226.605 119.693,234.569 111.950,236.757 107.119 C 238.162 104.017,239.110 103.139,242.285 101.997 L 244.770 101.104 246.176 101.933 C 248.306 103.189,250.722 103.905,255.895 104.812 C 262.568 105.982,263.763 106.641,265.398 110.052 L 266.711 112.791 265.756 115.153 C 263.350 121.112,263.324 145.874,265.718 152.200 C 266.052 153.080,266.836 155.150,267.462 156.800 L 268.600 159.800 268.706 234.125 L 268.812 308.449 267.637 309.625 L 266.462 310.800 205.200 310.800 L 143.938 310.800 142.769 309.631 L 141.600 308.462 141.608 236.131 C 141.616 158.578,141.564 160.535,143.791 154.768 C 147.170 146.020,147.756 122.159,144.763 115.202 C 142.825 110.698,146.195 106.273,152.370 105.213 C 158.198 104.212,162.287 103.137,163.802 102.206 C 165.772 100.997,165.395 100.993,168.810 102.259 M131.150 111.522 C 130.132 111.895,129.052 112.395,128.750 112.632 C 128.447 112.870,126.827 113.556,125.148 114.155 C 122.020 115.273,121.080 116.002,119.758 118.338 C 119.341 119.074,118.327 120.021,117.505 120.443 C 115.867 121.285,114.932 122.808,113.761 126.543 C 113.252 128.167,112.763 128.986,112.166 129.213 C 110.883 129.701,109.716 131.396,109.024 133.778 C 108.578 135.310,108.030 136.187,107.053 136.933 C 105.445 138.159,104.138 140.519,103.551 143.253 C 103.201 144.888,102.868 145.400,101.661 146.162 C 99.939 147.249,99.489 148.009,98.248 151.928 C 97.528 154.201,97.062 155.013,96.161 155.563 C 94.551 156.544,94.171 157.095,93.472 159.469 C 92.678 162.162,92.158 163.096,91.300 163.370 C 90.222 163.715,88.537 166.717,87.802 169.600 C 87.308 171.541,86.842 172.437,85.962 173.135 C 83.110 175.400,83.259 176.889,86.591 179.421 C 87.686 180.253,89.404 181.778,90.408 182.809 C 92.171 184.618,93.010 185.042,96.727 186.000 C 98.020 186.334,98.652 186.782,99.246 187.787 C 100.052 189.154,101.902 190.232,105.800 191.609 C 106.900 191.997,108.880 192.780,110.200 193.348 C 111.520 193.916,112.815 194.385,113.078 194.391 C 113.948 194.408,117.194 189.977,117.657 188.141 C 117.972 186.890,118.412 186.207,119.153 185.825 C 120.747 185.000,121.444 184.044,122.520 181.200 C 123.159 179.513,124.145 177.928,125.326 176.686 C 127.026 174.899,127.564 173.843,128.172 171.100 C 128.328 170.396,128.999 169.632,130.038 168.976 C 131.839 167.839,132.547 166.489,133.526 162.326 C 133.996 160.326,134.386 159.529,135.073 159.161 C 137.802 157.700,138.400 153.095,138.400 133.530 C 138.400 116.929,138.231 115.292,136.246 112.683 C 134.767 110.738,133.857 110.531,131.150 111.522 M274.917 111.700 C 272.356 114.500,272.000 117.097,272.000 132.973 C 272.001 152.290,272.503 156.554,275.041 158.783 C 276.165 159.769,276.582 160.582,277.197 162.989 C 278.189 166.868,278.764 167.905,280.618 169.164 C 281.820 169.981,282.253 170.614,282.636 172.113 C 283.187 174.274,283.727 175.199,285.601 177.200 C 286.323 177.970,287.478 179.950,288.168 181.600 C 289.209 184.087,289.678 184.737,290.911 185.400 C 292.128 186.054,292.506 186.567,292.987 188.218 C 293.574 190.233,295.959 193.745,297.016 194.151 C 297.583 194.368,301.741 193.096,302.556 192.456 C 302.800 192.265,304.251 191.710,305.780 191.223 C 309.687 189.979,310.668 189.393,311.772 187.645 C 312.571 186.378,313.037 186.064,314.452 185.838 C 316.571 185.499,320.078 183.539,320.757 182.313 C 321.035 181.811,321.988 180.860,322.875 180.200 C 327.317 176.894,327.550 176.256,325.176 173.882 C 323.262 171.968,322.800 171.191,322.800 169.890 C 322.800 168.421,320.434 163.998,319.394 163.525 C 318.491 163.113,317.681 161.610,316.799 158.713 C 316.390 157.370,314.425 155.200,313.616 155.200 C 313.439 155.200,312.808 153.641,312.214 151.737 C 311.175 148.404,310.164 146.882,308.268 145.800 C 307.875 145.575,307.301 144.371,306.959 143.053 C 306.268 140.389,305.029 138.268,303.293 136.782 C 302.493 136.097,301.879 134.985,301.416 133.382 C 300.673 130.808,299.987 129.821,298.354 128.976 C 297.740 128.659,297.213 127.973,297.080 127.317 C 296.526 124.595,294.821 121.623,293.238 120.624 C 292.369 120.075,291.329 119.159,290.928 118.588 C 289.006 115.849,288.306 115.263,285.908 114.391 C 284.529 113.890,282.151 112.876,280.624 112.140 C 277.367 110.568,276.045 110.466,274.917 111.700 M135.871 116.700 L 137.000 119.000 137.000 133.200 C 137.000 148.990,136.680 151.805,134.432 155.756 C 133.793 156.880,132.961 158.880,132.585 160.200 C 131.699 163.305,131.003 164.652,129.311 166.539 C 128.552 167.386,127.395 169.276,126.739 170.739 C 126.084 172.203,124.884 174.045,124.074 174.834 C 123.180 175.704,122.227 177.255,121.651 178.776 C 121.103 180.226,119.955 182.125,118.929 183.279 C 117.954 184.377,116.741 186.204,116.232 187.338 C 114.007 192.303,107.835 192.301,102.031 187.334 C 101.119 186.553,99.163 185.404,97.686 184.781 C 94.991 183.645,92.388 181.791,88.662 178.354 L 86.661 176.508 87.469 174.754 C 87.914 173.789,88.615 172.042,89.028 170.872 C 89.441 169.701,90.532 167.860,91.453 166.782 C 92.373 165.703,93.548 163.717,94.063 162.369 C 94.592 160.986,95.812 158.985,96.863 157.778 C 97.887 156.602,98.946 154.955,99.217 154.120 C 99.890 152.038,101.094 149.706,101.922 148.878 C 103.145 147.655,104.264 145.845,104.986 143.922 C 105.374 142.890,106.441 141.167,107.357 140.093 C 108.274 139.020,109.468 137.003,110.012 135.611 C 110.560 134.208,111.677 132.371,112.520 131.487 C 113.357 130.610,114.563 128.741,115.200 127.335 C 118.352 120.385,125.941 114.429,131.671 114.410 L 134.741 114.400 135.871 116.700 M284.312 115.619 C 287.696 117.310,293.624 123.568,295.284 127.200 C 295.938 128.630,297.159 130.520,297.997 131.400 C 298.886 132.332,300.045 134.270,300.775 136.043 C 301.464 137.717,302.495 139.517,303.066 140.043 C 303.638 140.569,304.802 142.440,305.653 144.200 C 306.504 145.960,307.875 148.252,308.700 149.293 C 309.525 150.334,310.712 152.456,311.338 154.008 C 312.041 155.754,312.862 157.084,313.487 157.494 C 314.105 157.899,315.181 159.626,316.251 161.932 C 317.215 164.008,318.592 166.359,319.313 167.156 C 320.033 167.953,320.859 169.235,321.148 170.003 C 321.437 170.771,322.124 172.520,322.676 173.888 L 323.680 176.377 322.740 177.525 C 322.223 178.156,321.194 179.106,320.453 179.636 C 319.712 180.166,318.360 181.258,317.449 182.063 C 316.537 182.867,314.734 183.993,313.443 184.564 C 312.151 185.136,310.375 186.252,309.497 187.046 C 307.323 189.009,304.103 190.356,300.482 190.815 C 296.751 191.288,296.128 190.962,294.546 187.715 C 293.925 186.442,292.739 184.660,291.908 183.755 C 291.078 182.850,289.699 180.600,288.843 178.755 C 287.987 176.910,286.799 174.950,286.202 174.400 C 285.606 173.850,284.437 172.050,283.604 170.400 C 282.771 168.750,281.689 167.040,281.201 166.600 C 280.106 165.613,278.640 162.775,278.003 160.410 C 277.740 159.434,276.903 157.448,276.144 155.999 C 273.834 151.589,273.470 148.541,273.444 133.400 C 273.419 119.534,273.590 117.861,275.269 115.504 C 276.462 113.827,280.838 113.883,284.312 115.619 " stroke="none" fill="#5c5c5c" fill-rule="evenodd"></path><path id="path4" d="M169.053 88.438 C 165.032 88.863,162.142 89.708,160.195 91.029 C 158.008 92.513,157.383 92.699,151.575 93.589 C 146.458 94.373,142.900 95.515,141.929 96.686 C 141.186 97.580,140.160 97.871,135.160 98.600 C 130.007 99.352,127.929 100.132,126.211 101.963 C 125.450 102.773,124.226 103.459,122.811 103.869 C 121.235 104.324,120.101 105.004,118.865 106.237 C 117.910 107.187,116.351 108.421,115.400 108.979 C 112.907 110.440,110.355 113.143,108.911 115.853 C 108.220 117.149,107.122 118.603,106.470 119.085 C 105.675 119.672,104.930 120.890,104.209 122.777 C 103.476 124.694,102.756 125.861,101.955 126.432 C 100.602 127.395,99.001 130.322,98.570 132.619 C 98.356 133.762,97.757 134.689,96.386 135.997 C 95.016 137.305,94.200 138.568,93.411 140.599 C 92.729 142.355,91.684 144.082,90.608 145.232 C 89.642 146.265,88.764 147.663,88.598 148.433 C 88.171 150.416,87.280 151.984,85.941 153.111 C 84.604 154.236,83.523 156.179,82.776 158.800 C 82.444 159.968,81.680 161.162,80.601 162.200 C 79.405 163.351,78.559 164.752,77.586 167.196 C 76.747 169.301,75.802 170.955,75.102 171.544 C 73.169 173.171,72.713 174.538,72.762 178.560 C 72.815 182.895,73.237 183.672,76.418 185.301 C 77.600 185.906,79.205 187.012,79.984 187.758 C 81.491 189.203,83.839 190.503,85.788 190.973 C 86.442 191.131,87.792 192.101,88.788 193.130 C 90.225 194.613,91.220 195.207,93.594 196.000 C 95.864 196.758,96.976 197.402,98.194 198.661 C 99.262 199.766,100.502 200.547,101.895 200.992 C 103.270 201.431,104.501 202.200,105.475 203.228 C 110.905 208.959,119.902 206.674,122.649 198.866 C 123.170 197.385,123.753 196.529,124.555 196.066 C 125.361 195.601,126.190 194.375,127.304 192.000 L 128.899 188.600 129.550 190.000 C 130.139 191.268,130.219 197.384,130.400 255.018 C 130.623 325.919,130.359 319.883,133.304 321.492 C 134.776 322.296,265.992 322.826,273.645 322.058 C 278.481 321.573,279.603 320.603,280.057 316.515 C 280.223 315.022,280.368 286.332,280.379 252.760 C 280.402 184.489,280.381 184.943,283.211 191.972 C 283.912 193.715,284.741 194.930,285.917 195.942 C 286.849 196.744,287.610 197.610,287.606 197.867 C 287.592 198.923,289.240 202.042,290.616 203.566 C 294.018 207.331,300.445 207.268,304.770 203.427 C 305.885 202.436,307.618 201.393,308.800 201.000 C 309.967 200.612,311.710 199.568,312.789 198.610 C 313.920 197.605,315.887 196.444,317.589 195.776 C 319.781 194.917,320.804 194.241,321.851 192.964 C 322.831 191.768,323.642 191.206,324.665 191.014 C 327.091 190.559,330.270 188.943,331.192 187.696 C 331.674 187.045,333.126 185.916,334.420 185.189 C 338.999 182.613,339.515 175.835,335.478 171.287 C 334.490 170.174,333.331 168.198,332.659 166.484 C 331.812 164.323,331.119 163.252,329.971 162.328 C 328.787 161.377,328.271 160.558,327.776 158.842 C 326.938 155.942,325.769 153.876,324.389 152.855 C 323.690 152.338,322.899 151.029,322.234 149.290 C 321.606 147.647,320.639 146.013,319.829 145.228 C 318.995 144.420,317.897 142.540,316.976 140.343 C 315.830 137.611,315.116 136.484,313.939 135.552 C 313.093 134.881,312.400 134.085,312.400 133.781 C 312.400 132.196,310.530 128.457,308.960 126.904 C 307.833 125.789,306.944 124.381,306.366 122.796 C 305.798 121.237,304.991 119.948,304.085 119.152 C 303.313 118.475,302.259 117.071,301.741 116.032 C 300.561 113.664,298.018 110.989,294.960 108.898 C 293.662 108.010,292.076 106.730,291.435 106.052 C 290.777 105.357,289.092 104.370,287.566 103.787 C 285.999 103.188,284.609 102.368,284.261 101.837 C 283.355 100.454,281.406 99.708,275.782 98.589 C 271.604 97.757,270.443 97.369,269.405 96.458 C 267.799 95.048,264.702 94.185,258.519 93.426 C 253.468 92.806,251.393 92.198,250.452 91.063 C 249.623 90.063,245.296 88.881,240.766 88.416 C 235.939 87.920,173.777 87.940,169.053 88.438 M242.200 90.164 C 243.520 90.548,245.966 91.475,247.635 92.224 C 249.843 93.215,252.296 93.865,256.635 94.611 C 261.396 95.430,263.309 95.963,266.111 97.253 C 268.207 98.217,271.189 99.182,273.511 99.648 C 278.236 100.594,279.578 101.097,282.329 102.951 C 283.501 103.740,285.180 104.601,286.060 104.865 C 286.951 105.132,288.719 106.289,290.046 107.473 C 291.357 108.643,292.605 109.600,292.820 109.600 C 293.644 109.600,299.624 115.777,300.776 117.818 C 301.442 118.999,302.343 120.155,302.778 120.388 C 303.213 120.621,304.226 122.204,305.029 123.906 C 305.832 125.608,307.110 127.763,307.868 128.695 C 308.626 129.628,309.792 131.608,310.460 133.095 C 311.127 134.583,312.281 136.432,313.024 137.204 C 313.767 137.976,314.995 140.046,315.753 141.804 C 316.511 143.562,317.784 145.759,318.582 146.686 C 319.379 147.614,320.490 149.414,321.051 150.686 C 321.611 151.959,322.759 153.900,323.602 155.000 C 324.445 156.100,325.755 158.350,326.512 160.000 C 327.270 161.650,328.387 163.450,328.994 164.000 C 329.602 164.550,330.885 166.620,331.845 168.600 C 332.805 170.580,334.223 172.979,334.995 173.931 C 337.624 177.171,336.411 184.000,333.207 184.000 C 333.007 184.000,331.618 184.928,330.121 186.062 C 328.625 187.197,325.960 188.794,324.200 189.612 C 322.440 190.430,320.504 191.628,319.897 192.274 C 319.291 192.921,317.518 193.978,315.958 194.625 C 314.397 195.271,312.341 196.479,311.388 197.310 C 310.435 198.140,308.608 199.283,307.328 199.849 C 306.048 200.415,304.191 201.467,303.201 202.187 C 297.187 206.560,292.308 205.051,289.228 197.866 C 288.794 196.853,287.733 195.254,286.871 194.312 C 286.009 193.370,284.673 191.230,283.903 189.556 C 281.875 185.145,281.149 185.041,279.851 188.971 C 279.261 190.757,279.200 196.628,279.200 251.442 C 279.200 315.905,279.161 317.334,277.350 319.242 C 275.509 321.182,274.813 321.201,205.427 321.201 C 136.795 321.200,134.845 321.151,133.174 319.372 C 131.668 317.769,131.635 316.387,131.613 253.600 C 131.589 188.927,131.626 190.330,129.845 186.887 C 128.955 185.166,128.678 185.406,126.558 189.730 C 125.573 191.737,124.207 193.924,123.522 194.590 C 122.837 195.255,121.859 196.739,121.349 197.887 C 118.286 204.778,112.788 206.650,107.813 202.496 C 107.160 201.951,105.403 200.910,103.908 200.182 C 102.414 199.455,100.401 198.171,99.436 197.330 C 98.471 196.488,96.376 195.273,94.782 194.628 C 93.187 193.983,91.071 192.754,90.079 191.896 C 89.088 191.038,87.304 189.905,86.116 189.380 C 84.928 188.854,83.237 187.810,82.359 187.058 C 81.481 186.307,79.633 185.135,78.252 184.456 C 74.946 182.828,74.546 182.299,74.218 179.128 C 73.911 176.154,74.113 175.557,76.291 173.000 C 77.041 172.120,78.250 170.013,78.978 168.317 C 79.706 166.622,81.011 164.429,81.878 163.444 C 82.745 162.458,83.705 160.895,84.010 159.968 C 84.316 159.042,85.446 157.095,86.521 155.642 C 87.596 154.189,88.997 151.854,89.634 150.452 C 90.272 149.051,91.380 147.251,92.098 146.452 C 92.816 145.654,93.931 143.740,94.576 142.200 C 95.220 140.660,96.496 138.557,97.410 137.528 C 98.328 136.494,99.456 134.604,99.928 133.309 C 100.399 132.019,101.426 130.213,102.212 129.295 C 102.997 128.377,104.247 126.315,104.989 124.713 C 105.731 123.111,106.904 121.260,107.596 120.600 C 108.288 119.940,109.374 118.492,110.009 117.383 C 111.139 115.410,116.342 110.000,117.111 110.000 C 117.324 110.000,118.589 109.028,119.920 107.840 C 121.431 106.492,123.217 105.352,124.671 104.809 C 125.952 104.331,127.588 103.491,128.307 102.944 C 130.449 101.313,133.054 100.363,137.014 99.768 C 141.056 99.161,143.903 98.331,145.800 97.209 C 147.492 96.208,150.308 95.383,155.400 94.398 C 157.820 93.930,160.880 93.088,162.200 92.528 C 170.094 89.174,168.724 89.269,207.600 89.376 C 236.896 89.457,240.016 89.528,242.200 90.164 M185.171 100.791 C 181.358 102.807,183.635 106.985,191.000 111.486 C 197.043 115.179,197.641 115.341,205.200 115.341 C 213.413 115.341,214.689 114.898,223.236 109.077 C 227.266 106.332,228.135 101.909,224.913 100.545 C 222.628 99.578,187.050 99.798,185.171 100.791 M224.813 101.930 L 225.715 102.661 224.671 104.443 C 223.199 106.954,221.840 108.119,218.400 109.817 C 216.750 110.631,214.911 111.753,214.314 112.310 C 211.631 114.812,198.582 114.646,195.953 112.075 C 195.245 111.384,194.022 110.606,193.233 110.348 C 189.912 109.258,187.136 107.016,185.760 104.313 L 184.800 102.426 185.900 101.829 C 187.753 100.823,223.562 100.917,224.813 101.930 M163.613 103.446 C 162.410 103.936,158.880 104.815,155.768 105.399 C 148.999 106.671,148.019 107.192,146.411 110.378 L 145.198 112.782 146.094 115.891 C 148.072 122.748,147.250 150.456,144.934 155.000 C 144.598 155.660,143.935 157.190,143.461 158.400 L 142.600 160.600 142.494 234.459 L 142.388 308.318 143.624 309.359 L 144.861 310.400 205.400 310.400 L 265.938 310.400 267.178 309.161 L 268.417 307.922 268.292 235.061 C 268.158 156.327,268.304 161.250,265.936 155.855 C 263.169 149.550,262.167 124.623,264.346 116.272 L 265.266 112.743 264.208 110.581 C 262.473 107.034,261.696 106.640,253.539 105.171 C 251.050 104.723,248.008 103.950,246.777 103.453 L 244.540 102.550 242.170 103.379 C 238.905 104.522,238.920 104.508,237.269 107.943 C 235.075 112.509,227.660 119.849,223.721 121.354 C 222.218 121.928,220.362 122.821,219.595 123.339 C 214.209 126.972,196.237 126.980,190.890 123.351 C 190.123 122.831,188.442 122.021,187.154 121.551 C 182.903 120.001,175.365 112.611,173.245 107.916 C 171.867 104.862,171.280 104.329,168.200 103.332 L 165.800 102.556 163.613 103.446 M168.476 106.023 C 171.402 106.894,171.271 106.752,172.582 110.467 C 173.813 113.954,181.648 121.313,185.461 122.563 C 186.594 122.934,188.093 123.785,188.792 124.453 C 193.323 128.783,218.195 128.838,221.587 124.525 C 222.021 123.975,223.509 123.126,224.978 122.594 C 228.164 121.438,229.241 120.629,233.600 116.118 C 236.727 112.883,237.421 111.816,238.810 108.103 C 239.324 106.728,243.897 104.864,245.516 105.370 C 245.892 105.487,248.650 105.942,251.644 106.380 C 261.246 107.786,263.208 109.686,262.382 116.785 C 261.787 121.904,262.110 150.779,262.798 153.985 C 263.333 156.475,264.070 158.060,265.171 159.088 C 267.202 160.985,267.200 160.891,267.200 237.222 L 267.200 307.955 266.311 308.577 C 264.905 309.562,145.421 309.524,144.331 308.538 C 143.628 307.901,143.600 305.137,143.600 236.411 C 143.600 160.005,143.564 161.398,145.614 158.837 C 148.465 155.275,149.927 128.403,147.963 115.659 C 147.078 109.913,150.125 107.514,159.964 106.210 C 162.474 105.878,164.619 105.514,164.731 105.403 C 165.060 105.073,165.570 105.157,168.476 106.023 M126.833 116.259 C 123.540 117.899,118.033 123.778,115.833 128.000 C 114.858 129.870,113.532 131.905,112.885 132.523 C 112.238 133.140,111.201 134.908,110.579 136.452 C 109.958 137.996,108.759 140.043,107.915 141.002 C 107.071 141.961,105.919 143.793,105.355 145.073 C 104.792 146.353,103.639 148.301,102.793 149.401 C 101.947 150.502,100.692 152.662,100.004 154.201 C 99.316 155.741,98.151 157.630,97.415 158.400 C 96.679 159.170,95.516 161.132,94.831 162.760 C 94.145 164.388,92.973 166.397,92.225 167.225 C 90.530 169.101,90.338 169.466,88.993 173.375 L 87.900 176.550 89.494 177.975 C 93.439 181.502,95.970 183.272,98.391 184.197 C 99.826 184.745,101.990 186.010,103.200 187.007 C 108.667 191.510,114.008 191.107,116.010 186.039 C 116.306 185.291,117.254 183.861,118.118 182.863 C 118.983 181.865,120.277 179.777,120.996 178.224 C 121.714 176.671,122.971 174.684,123.788 173.809 C 124.606 172.934,125.794 171.072,126.430 169.671 C 127.065 168.269,128.125 166.508,128.785 165.756 C 130.336 163.990,131.136 162.414,132.002 159.422 C 132.388 158.090,133.186 155.920,133.777 154.600 C 137.176 147.002,137.814 120.385,134.694 116.364 C 133.710 115.097,129.283 115.038,126.833 116.259 M278.020 115.560 C 274.739 116.002,274.000 119.264,274.000 133.305 C 274.000 143.129,274.509 148.434,275.795 152.000 C 276.310 153.430,277.345 156.310,278.095 158.400 C 279.724 162.941,280.108 163.707,281.822 165.829 C 282.545 166.725,283.697 168.613,284.381 170.024 C 285.064 171.436,286.229 173.223,286.969 173.995 C 287.710 174.768,288.940 176.767,289.703 178.439 C 290.467 180.110,291.725 182.180,292.499 183.039 C 293.273 183.897,294.295 185.429,294.770 186.443 C 297.004 191.206,302.193 191.367,308.094 186.857 C 309.472 185.804,311.641 184.467,312.914 183.887 C 315.169 182.858,316.877 181.602,320.811 178.076 L 322.734 176.352 322.027 174.676 C 321.638 173.754,321.003 172.134,320.617 171.075 C 320.231 170.016,319.245 168.376,318.426 167.430 C 317.606 166.483,316.420 164.469,315.789 162.954 C 315.159 161.439,313.973 159.455,313.154 158.544 C 312.335 157.634,311.029 155.513,310.253 153.831 C 309.476 152.150,308.224 150.054,307.471 149.174 C 306.717 148.294,305.708 146.545,305.227 145.287 C 304.746 144.029,303.619 142.129,302.723 141.064 C 301.826 140.000,300.558 137.840,299.904 136.264 C 299.251 134.689,298.128 132.770,297.410 132.000 C 296.691 131.230,295.446 129.340,294.643 127.800 C 292.774 124.214,286.632 117.736,283.685 116.243 C 281.595 115.184,281.181 115.134,278.020 115.560 M132.268 117.819 C 134.517 118.729,135.204 122.336,135.193 133.164 C 135.183 142.523,134.731 146.228,133.223 149.301 C 132.211 151.365,131.085 155.539,130.151 160.690 C 130.062 161.180,129.288 162.260,128.430 163.090 C 126.684 164.780,124.949 167.800,124.573 169.803 C 124.408 170.684,123.805 171.544,122.768 172.378 C 121.731 173.211,120.762 174.593,119.867 176.514 C 119.128 178.102,117.868 180.107,117.067 180.972 C 116.266 181.837,115.321 183.367,114.967 184.372 C 113.578 188.314,113.965 188.000,110.498 188.000 C 107.205 188.000,106.168 187.592,104.662 185.703 C 103.753 184.563,101.668 183.475,98.788 182.637 C 97.195 182.174,96.296 181.620,95.482 180.600 C 94.867 179.829,93.697 178.858,92.882 178.442 C 90.081 177.012,89.922 176.612,90.802 173.194 C 91.242 171.480,91.873 169.998,92.284 169.707 C 94.102 168.425,94.869 167.299,96.061 164.161 C 97.004 161.678,97.684 160.526,98.633 159.802 C 99.534 159.115,100.253 157.955,101.016 155.959 C 101.616 154.387,102.555 152.718,103.102 152.251 C 104.576 150.990,105.868 148.778,106.599 146.262 C 107.096 144.553,107.610 143.742,108.790 142.808 C 110.021 141.833,110.635 140.821,111.831 137.799 C 112.790 135.377,113.591 133.930,114.055 133.783 C 115.058 133.464,116.232 131.709,116.765 129.732 C 117.227 128.013,118.638 126.281,123.915 120.953 C 128.131 116.696,128.836 116.431,132.268 117.819 M282.707 117.500 C 284.116 118.414,290.400 124.619,290.400 125.096 C 290.400 125.299,290.816 125.687,291.323 125.959 C 292.266 126.464,292.922 127.534,294.353 130.908 C 294.852 132.086,295.614 133.075,296.343 133.493 C 297.130 133.945,297.685 134.710,298.006 135.786 C 298.732 138.221,300.700 142.400,301.120 142.400 C 301.685 142.400,303.600 144.438,303.600 145.040 C 303.600 146.518,305.439 150.188,307.034 151.895 C 308.193 153.135,309.055 154.559,309.504 155.974 C 309.949 157.379,310.761 158.725,311.796 159.776 C 312.870 160.867,313.775 162.394,314.535 164.402 C 315.366 166.597,316.128 167.829,317.377 169.000 C 318.885 170.414,320.400 174.006,320.400 176.167 C 320.400 176.603,318.536 178.089,317.374 178.580 C 316.700 178.864,315.560 179.840,314.841 180.749 C 314.121 181.657,313.285 182.400,312.981 182.400 C 311.522 182.400,307.777 184.228,306.456 185.586 C 303.019 189.117,296.913 189.287,296.178 185.872 C 295.773 183.992,294.924 182.517,293.125 180.565 C 292.235 179.599,291.031 177.613,290.424 176.111 C 289.627 174.136,288.960 173.149,287.965 172.474 C 287.034 171.843,286.395 170.951,285.957 169.670 C 284.968 166.782,283.798 164.718,282.402 163.400 C 280.667 161.762,280.559 161.508,279.598 156.789 C 279.130 154.494,278.136 151.311,277.369 149.650 C 275.602 145.826,274.990 139.806,275.350 129.800 C 275.760 118.388,275.867 118.164,281.514 116.827 C 281.577 116.812,282.114 117.115,282.707 117.500 " stroke="none" fill="#949494" fill-rule="evenodd"></path></g></svg>